<?xml version="1.0" encoding="utf-8" standalone="no"?>
<!DOCTYPE svg PUBLIC "-//W3C//DTD SVG 1.1//EN"
  "http://www.w3.org/Graphics/SVG/1.1/DTD/svg11.dtd">
<!-- Created with matplotlib (https://matplotlib.org/) -->
<svg height="432pt" version="1.1" viewBox="0 0 432 432" width="432pt" xmlns="http://www.w3.org/2000/svg" xmlns:xlink="http://www.w3.org/1999/xlink">
 <defs>
  <style type="text/css">
*{stroke-linecap:butt;stroke-linejoin:round;}
  </style>
 </defs>
 <g id="figure_1">
  <g id="patch_1">
   <path d="M 0 432 
L 432 432 
L 432 0 
L 0 0 
z
" style="fill:#ffffff;"/>
  </g>
  <g id="axes_1">
   <g id="patch_2">
    <path d="M 48.58125 389.29375 
L 357.3225 389.29375 
L 357.3225 75.684643 
L 48.58125 75.684643 
z
" style="fill:#ffffff;"/>
   </g>
   <g id="PathCollection_1">
    <defs>
     <path d="M 0 3 
C 0.795609 3 1.55874 2.683901 2.12132 2.12132 
C 2.683901 1.55874 3 0.795609 3 0 
C 3 -0.795609 2.683901 -1.55874 2.12132 -2.12132 
C 1.55874 -2.683901 0.795609 -3 0 -3 
C -0.795609 -3 -1.55874 -2.683901 -2.12132 -2.12132 
C -2.683901 -1.55874 -3 -0.795609 -3 0 
C -3 0.795609 -2.683901 1.55874 -2.12132 2.12132 
C -1.55874 2.683901 -0.795609 3 0 3 
z
" id="m519eb750f0" style="stroke:#1f77b4;"/>
    </defs>
    <g clip-path="url(#pa540a267a8)">
     <use style="fill:#1f77b4;stroke:#1f77b4;" x="342.399717" xlink:href="#m519eb750f0" y="120.159459"/>
     <use style="fill:#1f77b4;stroke:#1f77b4;" x="338.042588" xlink:href="#m519eb750f0" y="142.578731"/>
     <use style="fill:#1f77b4;stroke:#1f77b4;" x="326.571024" xlink:href="#m519eb750f0" y="144.100527"/>
     <use style="fill:#1f77b4;stroke:#1f77b4;" x="310.219597" xlink:href="#m519eb750f0" y="136.721812"/>
     <use style="fill:#1f77b4;stroke:#1f77b4;" x="310.059364" xlink:href="#m519eb750f0" y="124.171514"/>
     <use style="fill:#1f77b4;stroke:#1f77b4;" x="307.489394" xlink:href="#m519eb750f0" y="149.079856"/>
     <use style="fill:#1f77b4;stroke:#1f77b4;" x="306.360158" xlink:href="#m519eb750f0" y="122.783393"/>
     <use style="fill:#1f77b4;stroke:#1f77b4;" x="306.183545" xlink:href="#m519eb750f0" y="141.120881"/>
     <use style="fill:#1f77b4;stroke:#1f77b4;" x="298.814394" xlink:href="#m519eb750f0" y="123.482573"/>
     <use style="fill:#1f77b4;stroke:#1f77b4;" x="291.590642" xlink:href="#m519eb750f0" y="131.743882"/>
     <use style="fill:#1f77b4;stroke:#1f77b4;" x="290.555071" xlink:href="#m519eb750f0" y="145.743021"/>
     <use style="fill:#1f77b4;stroke:#1f77b4;" x="286.11978" xlink:href="#m519eb750f0" y="108.909752"/>
     <use style="fill:#1f77b4;stroke:#1f77b4;" x="285.079854" xlink:href="#m519eb750f0" y="147.988825"/>
     <use style="fill:#1f77b4;stroke:#1f77b4;" x="283.545386" xlink:href="#m519eb750f0" y="127.029349"/>
     <use style="fill:#1f77b4;stroke:#1f77b4;" x="280.792586" xlink:href="#m519eb750f0" y="137.421106"/>
     <use style="fill:#1f77b4;stroke:#1f77b4;" x="277.289193" xlink:href="#m519eb750f0" y="156.243893"/>
     <use style="fill:#1f77b4;stroke:#1f77b4;" x="275.60593" xlink:href="#m519eb750f0" y="131.668818"/>
     <use style="fill:#1f77b4;stroke:#1f77b4;" x="272.42521" xlink:href="#m519eb750f0" y="142.000949"/>
     <use style="fill:#1f77b4;stroke:#1f77b4;" x="272.217702" xlink:href="#m519eb750f0" y="145.654347"/>
     <use style="fill:#1f77b4;stroke:#1f77b4;" x="272.217702" xlink:href="#m519eb750f0" y="151.318571"/>
     <use style="fill:#1f77b4;stroke:#1f77b4;" x="269.639212" xlink:href="#m519eb750f0" y="138.346389"/>
     <use style="fill:#1f77b4;stroke:#1f77b4;" x="267.354803" xlink:href="#m519eb750f0" y="143.162998"/>
     <use style="fill:#1f77b4;stroke:#1f77b4;" x="266.643062" xlink:href="#m519eb750f0" y="153.789123"/>
     <use style="fill:#1f77b4;stroke:#1f77b4;" x="263.402452" xlink:href="#m519eb750f0" y="122.036695"/>
     <use style="fill:#1f77b4;stroke:#1f77b4;" x="262.61554" xlink:href="#m519eb750f0" y="113.488807"/>
     <use style="fill:#1f77b4;stroke:#1f77b4;" x="258.722016" xlink:href="#m519eb750f0" y="177.138002"/>
     <use style="fill:#1f77b4;stroke:#1f77b4;" x="256.001258" xlink:href="#m519eb750f0" y="180.412518"/>
     <use style="fill:#1f77b4;stroke:#1f77b4;" x="255.370486" xlink:href="#m519eb750f0" y="154.575694"/>
     <use style="fill:#1f77b4;stroke:#1f77b4;" x="255.051306" xlink:href="#m519eb750f0" y="121.085777"/>
     <use style="fill:#1f77b4;stroke:#1f77b4;" x="251.359915" xlink:href="#m519eb750f0" y="144.631864"/>
     <use style="fill:#1f77b4;stroke:#1f77b4;" x="249.927768" xlink:href="#m519eb750f0" y="116.627862"/>
     <use style="fill:#1f77b4;stroke:#1f77b4;" x="244.881082" xlink:href="#m519eb750f0" y="145.917363"/>
     <use style="fill:#1f77b4;stroke:#1f77b4;" x="241.423444" xlink:href="#m519eb750f0" y="131.152752"/>
     <use style="fill:#1f77b4;stroke:#1f77b4;" x="240.509891" xlink:href="#m519eb750f0" y="161.553686"/>
     <use style="fill:#1f77b4;stroke:#1f77b4;" x="240.045117" xlink:href="#m519eb750f0" y="126.142228"/>
     <use style="fill:#1f77b4;stroke:#1f77b4;" x="236.629956" xlink:href="#m519eb750f0" y="142.887979"/>
     <use style="fill:#1f77b4;stroke:#1f77b4;" x="229.384902" xlink:href="#m519eb750f0" y="139.878946"/>
     <use style="fill:#1f77b4;stroke:#1f77b4;" x="226.861021" xlink:href="#m519eb750f0" y="161.269944"/>
     <use style="fill:#1f77b4;stroke:#1f77b4;" x="226.204183" xlink:href="#m519eb750f0" y="110.837827"/>
     <use style="fill:#1f77b4;stroke:#1f77b4;" x="225.536306" xlink:href="#m519eb750f0" y="151.044721"/>
     <use style="fill:#1f77b4;stroke:#1f77b4;" x="224.165902" xlink:href="#m519eb750f0" y="112.991948"/>
     <use style="fill:#1f77b4;stroke:#1f77b4;" x="224.165902" xlink:href="#m519eb750f0" y="123.112795"/>
     <use style="fill:#1f77b4;stroke:#1f77b4;" x="222.746545" xlink:href="#m519eb750f0" y="141.286397"/>
     <use style="fill:#1f77b4;stroke:#1f77b4;" x="222.746545" xlink:href="#m519eb750f0" y="158.329344"/>
     <use style="fill:#1f77b4;stroke:#1f77b4;" x="221.274607" xlink:href="#m519eb750f0" y="114.263345"/>
     <use style="fill:#1f77b4;stroke:#1f77b4;" x="221.274607" xlink:href="#m519eb750f0" y="122.5761"/>
     <use style="fill:#1f77b4;stroke:#1f77b4;" x="220.517674" xlink:href="#m519eb750f0" y="140.97684"/>
     <use style="fill:#1f77b4;stroke:#1f77b4;" x="219.746042" xlink:href="#m519eb750f0" y="133.907025"/>
     <use style="fill:#1f77b4;stroke:#1f77b4;" x="218.156319" xlink:href="#m519eb750f0" y="108.691782"/>
     <use style="fill:#1f77b4;stroke:#1f77b4;" x="216.500339" xlink:href="#m519eb750f0" y="165.191404"/>
     <use style="fill:#1f77b4;stroke:#1f77b4;" x="215.64573" xlink:href="#m519eb750f0" y="166.28272"/>
     <use style="fill:#1f77b4;stroke:#1f77b4;" x="213.879316" xlink:href="#m519eb750f0" y="131.603137"/>
     <use style="fill:#1f77b4;stroke:#1f77b4;" x="213.879316" xlink:href="#m519eb750f0" y="117.547397"/>
     <use style="fill:#1f77b4;stroke:#1f77b4;" x="211.073131" xlink:href="#m519eb750f0" y="138.752986"/>
     <use style="fill:#1f77b4;stroke:#1f77b4;" x="210.091901" xlink:href="#m519eb750f0" y="110.568787"/>
     <use style="fill:#1f77b4;stroke:#1f77b4;" x="206.993883" xlink:href="#m519eb750f0" y="137.908515"/>
     <use style="fill:#1f77b4;stroke:#1f77b4;" x="205.905109" xlink:href="#m519eb750f0" y="123.172209"/>
     <use style="fill:#1f77b4;stroke:#1f77b4;" x="204.785661" xlink:href="#m519eb750f0" y="90.618175"/>
     <use style="fill:#1f77b4;stroke:#1f77b4;" x="201.224673" xlink:href="#m519eb750f0" y="139.386339"/>
     <use style="fill:#1f77b4;stroke:#1f77b4;" x="201.224673" xlink:href="#m519eb750f0" y="90.618175"/>
     <use style="fill:#1f77b4;stroke:#1f77b4;" x="199.96305" xlink:href="#m519eb750f0" y="185.198856"/>
     <use style="fill:#1f77b4;stroke:#1f77b4;" x="198.660055" xlink:href="#m519eb750f0" y="197.021441"/>
     <use style="fill:#1f77b4;stroke:#1f77b4;" x="197.312883" xlink:href="#m519eb750f0" y="137.908515"/>
     <use style="fill:#1f77b4;stroke:#1f77b4;" x="195.918432" xlink:href="#m519eb750f0" y="137.908515"/>
     <use style="fill:#1f77b4;stroke:#1f77b4;" x="194.473263" xlink:href="#m519eb750f0" y="118.992379"/>
     <use style="fill:#1f77b4;stroke:#1f77b4;" x="194.473263" xlink:href="#m519eb750f0" y="126.08593"/>
     <use style="fill:#1f77b4;stroke:#1f77b4;" x="192.973546" xlink:href="#m519eb750f0" y="167.644108"/>
     <use style="fill:#1f77b4;stroke:#1f77b4;" x="191.415002" xlink:href="#m519eb750f0" y="121.993497"/>
     <use style="fill:#1f77b4;stroke:#1f77b4;" x="189.792827" xlink:href="#m519eb750f0" y="152.686747"/>
     <use style="fill:#1f77b4;stroke:#1f77b4;" x="189.792827" xlink:href="#m519eb750f0" y="175.740788"/>
     <use style="fill:#1f77b4;stroke:#1f77b4;" x="189.792827" xlink:href="#m519eb750f0" y="126.36742"/>
     <use style="fill:#1f77b4;stroke:#1f77b4;" x="188.101602" xlink:href="#m519eb750f0" y="212.784888"/>
     <use style="fill:#1f77b4;stroke:#1f77b4;" x="188.101602" xlink:href="#m519eb750f0" y="185.198856"/>
     <use style="fill:#1f77b4;stroke:#1f77b4;" x="188.101602" xlink:href="#m519eb750f0" y="161.553686"/>
     <use style="fill:#1f77b4;stroke:#1f77b4;" x="186.335188" xlink:href="#m519eb750f0" y="99.485114"/>
     <use style="fill:#1f77b4;stroke:#1f77b4;" x="184.486586" xlink:href="#m519eb750f0" y="108.352053"/>
     <use style="fill:#1f77b4;stroke:#1f77b4;" x="184.486586" xlink:href="#m519eb750f0" y="90.618175"/>
     <use style="fill:#1f77b4;stroke:#1f77b4;" x="182.547773" xlink:href="#m519eb750f0" y="90.618175"/>
     <use style="fill:#1f77b4;stroke:#1f77b4;" x="182.547773" xlink:href="#m519eb750f0" y="161.553686"/>
     <use style="fill:#1f77b4;stroke:#1f77b4;" x="178.360981" xlink:href="#m519eb750f0" y="197.021441"/>
     <use style="fill:#1f77b4;stroke:#1f77b4;" x="176.089633" xlink:href="#m519eb750f0" y="232.489196"/>
     <use style="fill:#1f77b4;stroke:#1f77b4;" x="173.680545" xlink:href="#m519eb750f0" y="137.908515"/>
     <use style="fill:#1f77b4;stroke:#1f77b4;" x="173.680545" xlink:href="#m519eb750f0" y="175.740788"/>
     <use style="fill:#1f77b4;stroke:#1f77b4;" x="171.115927" xlink:href="#m519eb750f0" y="303.424707"/>
     <use style="fill:#1f77b4;stroke:#1f77b4;" x="171.115927" xlink:href="#m519eb750f0" y="161.553686"/>
     <use style="fill:#1f77b4;stroke:#1f77b4;" x="171.115927" xlink:href="#m519eb750f0" y="126.437677"/>
     <use style="fill:#1f77b4;stroke:#1f77b4;" x="171.115927" xlink:href="#m519eb750f0" y="126.08593"/>
     <use style="fill:#1f77b4;stroke:#1f77b4;" x="168.374304" xlink:href="#m519eb750f0" y="184.354386"/>
     <use style="fill:#1f77b4;stroke:#1f77b4;" x="165.429418" xlink:href="#m519eb750f0" y="114.263345"/>
     <use style="fill:#1f77b4;stroke:#1f77b4;" x="165.429418" xlink:href="#m519eb750f0" y="169.435409"/>
     <use style="fill:#1f77b4;stroke:#1f77b4;" x="165.429418" xlink:href="#m519eb750f0" y="175.740788"/>
     <use style="fill:#1f77b4;stroke:#1f77b4;" x="162.248699" xlink:href="#m519eb750f0" y="126.08593"/>
     <use style="fill:#1f77b4;stroke:#1f77b4;" x="162.248699" xlink:href="#m519eb750f0" y="126.08593"/>
     <use style="fill:#1f77b4;stroke:#1f77b4;" x="162.248699" xlink:href="#m519eb750f0" y="90.618175"/>
     <use style="fill:#1f77b4;stroke:#1f77b4;" x="158.79106" xlink:href="#m519eb750f0" y="90.618175"/>
     <use style="fill:#1f77b4;stroke:#1f77b4;" x="158.79106" xlink:href="#m519eb750f0" y="90.618175"/>
     <use style="fill:#1f77b4;stroke:#1f77b4;" x="158.79106" xlink:href="#m519eb750f0" y="126.08593"/>
     <use style="fill:#1f77b4;stroke:#1f77b4;" x="158.79106" xlink:href="#m519eb750f0" y="126.08593"/>
     <use style="fill:#1f77b4;stroke:#1f77b4;" x="158.79106" xlink:href="#m519eb750f0" y="161.553686"/>
     <use style="fill:#1f77b4;stroke:#1f77b4;" x="155.003646" xlink:href="#m519eb750f0" y="161.553686"/>
     <use style="fill:#1f77b4;stroke:#1f77b4;" x="155.003646" xlink:href="#m519eb750f0" y="303.424707"/>
     <use style="fill:#1f77b4;stroke:#1f77b4;" x="155.003646" xlink:href="#m519eb750f0" y="90.618175"/>
     <use style="fill:#1f77b4;stroke:#1f77b4;" x="155.003646" xlink:href="#m519eb750f0" y="126.08593"/>
     <use style="fill:#1f77b4;stroke:#1f77b4;" x="150.816853" xlink:href="#m519eb750f0" y="224.30433"/>
     <use style="fill:#1f77b4;stroke:#1f77b4;" x="146.136417" xlink:href="#m519eb750f0" y="137.908515"/>
     <use style="fill:#1f77b4;stroke:#1f77b4;" x="146.136417" xlink:href="#m519eb750f0" y="303.424707"/>
     <use style="fill:#1f77b4;stroke:#1f77b4;" x="146.136417" xlink:href="#m519eb750f0" y="90.618175"/>
     <use style="fill:#1f77b4;stroke:#1f77b4;" x="140.830176" xlink:href="#m519eb750f0" y="90.618175"/>
     <use style="fill:#1f77b4;stroke:#1f77b4;" x="140.830176" xlink:href="#m519eb750f0" y="90.618175"/>
     <use style="fill:#1f77b4;stroke:#1f77b4;" x="134.704571" xlink:href="#m519eb750f0" y="90.618175"/>
     <use style="fill:#1f77b4;stroke:#1f77b4;" x="134.704571" xlink:href="#m519eb750f0" y="113.081087"/>
     <use style="fill:#1f77b4;stroke:#1f77b4;" x="134.704571" xlink:href="#m519eb750f0" y="108.352053"/>
     <use style="fill:#1f77b4;stroke:#1f77b4;" x="134.704571" xlink:href="#m519eb750f0" y="303.424707"/>
     <use style="fill:#1f77b4;stroke:#1f77b4;" x="134.704571" xlink:href="#m519eb750f0" y="90.618175"/>
     <use style="fill:#1f77b4;stroke:#1f77b4;" x="127.459518" xlink:href="#m519eb750f0" y="374.360218"/>
     <use style="fill:#1f77b4;stroke:#1f77b4;" x="127.459518" xlink:href="#m519eb750f0" y="126.08593"/>
     <use style="fill:#1f77b4;stroke:#1f77b4;" x="127.459518" xlink:href="#m519eb750f0" y="90.618175"/>
     <use style="fill:#1f77b4;stroke:#1f77b4;" x="127.459518" xlink:href="#m519eb750f0" y="214.755319"/>
     <use style="fill:#1f77b4;stroke:#1f77b4;" x="127.459518" xlink:href="#m519eb750f0" y="90.618175"/>
     <use style="fill:#1f77b4;stroke:#1f77b4;" x="118.592289" xlink:href="#m519eb750f0" y="161.553686"/>
     <use style="fill:#1f77b4;stroke:#1f77b4;" x="118.592289" xlink:href="#m519eb750f0" y="108.352053"/>
     <use style="fill:#1f77b4;stroke:#1f77b4;" x="118.592289" xlink:href="#m519eb750f0" y="90.618175"/>
     <use style="fill:#1f77b4;stroke:#1f77b4;" x="107.160443" xlink:href="#m519eb750f0" y="90.618175"/>
     <use style="fill:#1f77b4;stroke:#1f77b4;" x="107.160443" xlink:href="#m519eb750f0" y="179.287563"/>
     <use style="fill:#1f77b4;stroke:#1f77b4;" x="107.160443" xlink:href="#m519eb750f0" y="90.618175"/>
     <use style="fill:#1f77b4;stroke:#1f77b4;" x="107.160443" xlink:href="#m519eb750f0" y="90.618175"/>
     <use style="fill:#1f77b4;stroke:#1f77b4;" x="107.160443" xlink:href="#m519eb750f0" y="161.553686"/>
     <use style="fill:#1f77b4;stroke:#1f77b4;" x="107.160443" xlink:href="#m519eb750f0" y="90.618175"/>
     <use style="fill:#1f77b4;stroke:#1f77b4;" x="107.160443" xlink:href="#m519eb750f0" y="90.618175"/>
     <use style="fill:#1f77b4;stroke:#1f77b4;" x="107.160443" xlink:href="#m519eb750f0" y="123.936369"/>
     <use style="fill:#1f77b4;stroke:#1f77b4;" x="107.160443" xlink:href="#m519eb750f0" y="126.08593"/>
     <use style="fill:#1f77b4;stroke:#1f77b4;" x="107.160443" xlink:href="#m519eb750f0" y="197.021441"/>
     <use style="fill:#1f77b4;stroke:#1f77b4;" x="107.160443" xlink:href="#m519eb750f0" y="158.926444"/>
     <use style="fill:#1f77b4;stroke:#1f77b4;" x="91.048161" xlink:href="#m519eb750f0" y="161.553686"/>
     <use style="fill:#1f77b4;stroke:#1f77b4;" x="91.048161" xlink:href="#m519eb750f0" y="197.021441"/>
     <use style="fill:#1f77b4;stroke:#1f77b4;" x="63.504033" xlink:href="#m519eb750f0" y="90.618175"/>
     <use style="fill:#1f77b4;stroke:#1f77b4;" x="63.504033" xlink:href="#m519eb750f0" y="232.489196"/>
     <use style="fill:#1f77b4;stroke:#1f77b4;" x="63.504033" xlink:href="#m519eb750f0" y="90.618175"/>
     <use style="fill:#1f77b4;stroke:#1f77b4;" x="63.504033" xlink:href="#m519eb750f0" y="161.553686"/>
     <use style="fill:#1f77b4;stroke:#1f77b4;" x="63.504033" xlink:href="#m519eb750f0" y="90.618175"/>
     <use style="fill:#1f77b4;stroke:#1f77b4;" x="63.504033" xlink:href="#m519eb750f0" y="118.992379"/>
     <use style="fill:#1f77b4;stroke:#1f77b4;" x="63.504033" xlink:href="#m519eb750f0" y="90.618175"/>
     <use style="fill:#1f77b4;stroke:#1f77b4;" x="63.504033" xlink:href="#m519eb750f0" y="90.618175"/>
     <use style="fill:#1f77b4;stroke:#1f77b4;" x="63.504033" xlink:href="#m519eb750f0" y="126.08593"/>
     <use style="fill:#1f77b4;stroke:#1f77b4;" x="63.504033" xlink:href="#m519eb750f0" y="374.360218"/>
     <use style="fill:#1f77b4;stroke:#1f77b4;" x="63.504033" xlink:href="#m519eb750f0" y="232.489196"/>
     <use style="fill:#1f77b4;stroke:#1f77b4;" x="63.504033" xlink:href="#m519eb750f0" y="90.618175"/>
    </g>
   </g>
   <g id="matplotlib.axis_1">
    <g id="xtick_1">
     <g id="line2d_1">
      <defs>
       <path d="M 0 0 
L 0 3.5 
" id="mc07d7044a1" style="stroke:#000000;stroke-width:0.8;"/>
      </defs>
      <g>
       <use style="stroke:#000000;stroke-width:0.8;" x="63.504033" xlink:href="#mc07d7044a1" y="389.29375"/>
      </g>
     </g>
     <g id="text_1">
      <!-- 0.0 -->
      <defs>
       <path d="M 31.78125 66.40625 
Q 24.171875 66.40625 20.328125 58.90625 
Q 16.5 51.421875 16.5 36.375 
Q 16.5 21.390625 20.328125 13.890625 
Q 24.171875 6.390625 31.78125 6.390625 
Q 39.453125 6.390625 43.28125 13.890625 
Q 47.125 21.390625 47.125 36.375 
Q 47.125 51.421875 43.28125 58.90625 
Q 39.453125 66.40625 31.78125 66.40625 
z
M 31.78125 74.21875 
Q 44.046875 74.21875 50.515625 64.515625 
Q 56.984375 54.828125 56.984375 36.375 
Q 56.984375 17.96875 50.515625 8.265625 
Q 44.046875 -1.421875 31.78125 -1.421875 
Q 19.53125 -1.421875 13.0625 8.265625 
Q 6.59375 17.96875 6.59375 36.375 
Q 6.59375 54.828125 13.0625 64.515625 
Q 19.53125 74.21875 31.78125 74.21875 
z
" id="DejaVuSans-48"/>
       <path d="M 10.6875 12.40625 
L 21 12.40625 
L 21 0 
L 10.6875 0 
z
" id="DejaVuSans-46"/>
      </defs>
      <g transform="translate(55.552471 403.892188)scale(0.1 -0.1)">
       <use xlink:href="#DejaVuSans-48"/>
       <use x="63.623047" xlink:href="#DejaVuSans-46"/>
       <use x="95.410156" xlink:href="#DejaVuSans-48"/>
      </g>
     </g>
    </g>
    <g id="xtick_2">
     <g id="line2d_2">
      <g>
       <use style="stroke:#000000;stroke-width:0.8;" x="109.25384" xlink:href="#mc07d7044a1" y="389.29375"/>
      </g>
     </g>
     <g id="text_2">
      <!-- 0.5 -->
      <defs>
       <path d="M 10.796875 72.90625 
L 49.515625 72.90625 
L 49.515625 64.59375 
L 19.828125 64.59375 
L 19.828125 46.734375 
Q 21.96875 47.46875 24.109375 47.828125 
Q 26.265625 48.1875 28.421875 48.1875 
Q 40.625 48.1875 47.75 41.5 
Q 54.890625 34.8125 54.890625 23.390625 
Q 54.890625 11.625 47.5625 5.09375 
Q 40.234375 -1.421875 26.90625 -1.421875 
Q 22.3125 -1.421875 17.546875 -0.640625 
Q 12.796875 0.140625 7.71875 1.703125 
L 7.71875 11.625 
Q 12.109375 9.234375 16.796875 8.0625 
Q 21.484375 6.890625 26.703125 6.890625 
Q 35.15625 6.890625 40.078125 11.328125 
Q 45.015625 15.765625 45.015625 23.390625 
Q 45.015625 31 40.078125 35.4375 
Q 35.15625 39.890625 26.703125 39.890625 
Q 22.75 39.890625 18.8125 39.015625 
Q 14.890625 38.140625 10.796875 36.28125 
z
" id="DejaVuSans-53"/>
      </defs>
      <g transform="translate(101.302277 403.892188)scale(0.1 -0.1)">
       <use xlink:href="#DejaVuSans-48"/>
       <use x="63.623047" xlink:href="#DejaVuSans-46"/>
       <use x="95.410156" xlink:href="#DejaVuSans-53"/>
      </g>
     </g>
    </g>
    <g id="xtick_3">
     <g id="line2d_3">
      <g>
       <use style="stroke:#000000;stroke-width:0.8;" x="155.003646" xlink:href="#mc07d7044a1" y="389.29375"/>
      </g>
     </g>
     <g id="text_3">
      <!-- 1.0 -->
      <defs>
       <path d="M 12.40625 8.296875 
L 28.515625 8.296875 
L 28.515625 63.921875 
L 10.984375 60.40625 
L 10.984375 69.390625 
L 28.421875 72.90625 
L 38.28125 72.90625 
L 38.28125 8.296875 
L 54.390625 8.296875 
L 54.390625 0 
L 12.40625 0 
z
" id="DejaVuSans-49"/>
      </defs>
      <g transform="translate(147.052083 403.892188)scale(0.1 -0.1)">
       <use xlink:href="#DejaVuSans-49"/>
       <use x="63.623047" xlink:href="#DejaVuSans-46"/>
       <use x="95.410156" xlink:href="#DejaVuSans-48"/>
      </g>
     </g>
    </g>
    <g id="xtick_4">
     <g id="line2d_4">
      <g>
       <use style="stroke:#000000;stroke-width:0.8;" x="200.753452" xlink:href="#mc07d7044a1" y="389.29375"/>
      </g>
     </g>
     <g id="text_4">
      <!-- 1.5 -->
      <g transform="translate(192.801889 403.892188)scale(0.1 -0.1)">
       <use xlink:href="#DejaVuSans-49"/>
       <use x="63.623047" xlink:href="#DejaVuSans-46"/>
       <use x="95.410156" xlink:href="#DejaVuSans-53"/>
      </g>
     </g>
    </g>
    <g id="xtick_5">
     <g id="line2d_5">
      <g>
       <use style="stroke:#000000;stroke-width:0.8;" x="246.503258" xlink:href="#mc07d7044a1" y="389.29375"/>
      </g>
     </g>
     <g id="text_5">
      <!-- 2.0 -->
      <defs>
       <path d="M 19.1875 8.296875 
L 53.609375 8.296875 
L 53.609375 0 
L 7.328125 0 
L 7.328125 8.296875 
Q 12.9375 14.109375 22.625 23.890625 
Q 32.328125 33.6875 34.8125 36.53125 
Q 39.546875 41.84375 41.421875 45.53125 
Q 43.3125 49.21875 43.3125 52.78125 
Q 43.3125 58.59375 39.234375 62.25 
Q 35.15625 65.921875 28.609375 65.921875 
Q 23.96875 65.921875 18.8125 64.3125 
Q 13.671875 62.703125 7.8125 59.421875 
L 7.8125 69.390625 
Q 13.765625 71.78125 18.9375 73 
Q 24.125 74.21875 28.421875 74.21875 
Q 39.75 74.21875 46.484375 68.546875 
Q 53.21875 62.890625 53.21875 53.421875 
Q 53.21875 48.921875 51.53125 44.890625 
Q 49.859375 40.875 45.40625 35.40625 
Q 44.1875 33.984375 37.640625 27.21875 
Q 31.109375 20.453125 19.1875 8.296875 
z
" id="DejaVuSans-50"/>
      </defs>
      <g transform="translate(238.551695 403.892188)scale(0.1 -0.1)">
       <use xlink:href="#DejaVuSans-50"/>
       <use x="63.623047" xlink:href="#DejaVuSans-46"/>
       <use x="95.410156" xlink:href="#DejaVuSans-48"/>
      </g>
     </g>
    </g>
    <g id="xtick_6">
     <g id="line2d_6">
      <g>
       <use style="stroke:#000000;stroke-width:0.8;" x="292.253064" xlink:href="#mc07d7044a1" y="389.29375"/>
      </g>
     </g>
     <g id="text_6">
      <!-- 2.5 -->
      <g transform="translate(284.301501 403.892188)scale(0.1 -0.1)">
       <use xlink:href="#DejaVuSans-50"/>
       <use x="63.623047" xlink:href="#DejaVuSans-46"/>
       <use x="95.410156" xlink:href="#DejaVuSans-53"/>
      </g>
     </g>
    </g>
    <g id="xtick_7">
     <g id="line2d_7">
      <g>
       <use style="stroke:#000000;stroke-width:0.8;" x="338.00287" xlink:href="#mc07d7044a1" y="389.29375"/>
      </g>
     </g>
     <g id="text_7">
      <!-- 3.0 -->
      <defs>
       <path d="M 40.578125 39.3125 
Q 47.65625 37.796875 51.625 33 
Q 55.609375 28.21875 55.609375 21.1875 
Q 55.609375 10.40625 48.1875 4.484375 
Q 40.765625 -1.421875 27.09375 -1.421875 
Q 22.515625 -1.421875 17.65625 -0.515625 
Q 12.796875 0.390625 7.625 2.203125 
L 7.625 11.71875 
Q 11.71875 9.328125 16.59375 8.109375 
Q 21.484375 6.890625 26.8125 6.890625 
Q 36.078125 6.890625 40.9375 10.546875 
Q 45.796875 14.203125 45.796875 21.1875 
Q 45.796875 27.640625 41.28125 31.265625 
Q 36.765625 34.90625 28.71875 34.90625 
L 20.21875 34.90625 
L 20.21875 43.015625 
L 29.109375 43.015625 
Q 36.375 43.015625 40.234375 45.921875 
Q 44.09375 48.828125 44.09375 54.296875 
Q 44.09375 59.90625 40.109375 62.90625 
Q 36.140625 65.921875 28.71875 65.921875 
Q 24.65625 65.921875 20.015625 65.03125 
Q 15.375 64.15625 9.8125 62.3125 
L 9.8125 71.09375 
Q 15.4375 72.65625 20.34375 73.4375 
Q 25.25 74.21875 29.59375 74.21875 
Q 40.828125 74.21875 47.359375 69.109375 
Q 53.90625 64.015625 53.90625 55.328125 
Q 53.90625 49.265625 50.4375 45.09375 
Q 46.96875 40.921875 40.578125 39.3125 
z
" id="DejaVuSans-51"/>
      </defs>
      <g transform="translate(330.051307 403.892188)scale(0.1 -0.1)">
       <use xlink:href="#DejaVuSans-51"/>
       <use x="63.623047" xlink:href="#DejaVuSans-46"/>
       <use x="95.410156" xlink:href="#DejaVuSans-48"/>
      </g>
     </g>
    </g>
    <g id="text_8">
     <!-- recipe_number -->
     <defs>
      <path d="M 41.109375 46.296875 
Q 39.59375 47.171875 37.8125 47.578125 
Q 36.03125 48 33.890625 48 
Q 26.265625 48 22.1875 43.046875 
Q 18.109375 38.09375 18.109375 28.8125 
L 18.109375 0 
L 9.078125 0 
L 9.078125 54.6875 
L 18.109375 54.6875 
L 18.109375 46.1875 
Q 20.953125 51.171875 25.484375 53.578125 
Q 30.03125 56 36.53125 56 
Q 37.453125 56 38.578125 55.875 
Q 39.703125 55.765625 41.0625 55.515625 
z
" id="DejaVuSans-114"/>
      <path d="M 56.203125 29.59375 
L 56.203125 25.203125 
L 14.890625 25.203125 
Q 15.484375 15.921875 20.484375 11.0625 
Q 25.484375 6.203125 34.421875 6.203125 
Q 39.59375 6.203125 44.453125 7.46875 
Q 49.3125 8.734375 54.109375 11.28125 
L 54.109375 2.78125 
Q 49.265625 0.734375 44.1875 -0.34375 
Q 39.109375 -1.421875 33.890625 -1.421875 
Q 20.796875 -1.421875 13.15625 6.1875 
Q 5.515625 13.8125 5.515625 26.8125 
Q 5.515625 40.234375 12.765625 48.109375 
Q 20.015625 56 32.328125 56 
Q 43.359375 56 49.78125 48.890625 
Q 56.203125 41.796875 56.203125 29.59375 
z
M 47.21875 32.234375 
Q 47.125 39.59375 43.09375 43.984375 
Q 39.0625 48.390625 32.421875 48.390625 
Q 24.90625 48.390625 20.390625 44.140625 
Q 15.875 39.890625 15.1875 32.171875 
z
" id="DejaVuSans-101"/>
      <path d="M 48.78125 52.59375 
L 48.78125 44.1875 
Q 44.96875 46.296875 41.140625 47.34375 
Q 37.3125 48.390625 33.40625 48.390625 
Q 24.65625 48.390625 19.8125 42.84375 
Q 14.984375 37.3125 14.984375 27.296875 
Q 14.984375 17.28125 19.8125 11.734375 
Q 24.65625 6.203125 33.40625 6.203125 
Q 37.3125 6.203125 41.140625 7.25 
Q 44.96875 8.296875 48.78125 10.40625 
L 48.78125 2.09375 
Q 45.015625 0.34375 40.984375 -0.53125 
Q 36.96875 -1.421875 32.421875 -1.421875 
Q 20.0625 -1.421875 12.78125 6.34375 
Q 5.515625 14.109375 5.515625 27.296875 
Q 5.515625 40.671875 12.859375 48.328125 
Q 20.21875 56 33.015625 56 
Q 37.15625 56 41.109375 55.140625 
Q 45.0625 54.296875 48.78125 52.59375 
z
" id="DejaVuSans-99"/>
      <path d="M 9.421875 54.6875 
L 18.40625 54.6875 
L 18.40625 0 
L 9.421875 0 
z
M 9.421875 75.984375 
L 18.40625 75.984375 
L 18.40625 64.59375 
L 9.421875 64.59375 
z
" id="DejaVuSans-105"/>
      <path d="M 18.109375 8.203125 
L 18.109375 -20.796875 
L 9.078125 -20.796875 
L 9.078125 54.6875 
L 18.109375 54.6875 
L 18.109375 46.390625 
Q 20.953125 51.265625 25.265625 53.625 
Q 29.59375 56 35.59375 56 
Q 45.5625 56 51.78125 48.09375 
Q 58.015625 40.1875 58.015625 27.296875 
Q 58.015625 14.40625 51.78125 6.484375 
Q 45.5625 -1.421875 35.59375 -1.421875 
Q 29.59375 -1.421875 25.265625 0.953125 
Q 20.953125 3.328125 18.109375 8.203125 
z
M 48.6875 27.296875 
Q 48.6875 37.203125 44.609375 42.84375 
Q 40.53125 48.484375 33.40625 48.484375 
Q 26.265625 48.484375 22.1875 42.84375 
Q 18.109375 37.203125 18.109375 27.296875 
Q 18.109375 17.390625 22.1875 11.75 
Q 26.265625 6.109375 33.40625 6.109375 
Q 40.53125 6.109375 44.609375 11.75 
Q 48.6875 17.390625 48.6875 27.296875 
z
" id="DejaVuSans-112"/>
      <path d="M 50.984375 -16.609375 
L 50.984375 -23.578125 
L -0.984375 -23.578125 
L -0.984375 -16.609375 
z
" id="DejaVuSans-95"/>
      <path d="M 54.890625 33.015625 
L 54.890625 0 
L 45.90625 0 
L 45.90625 32.71875 
Q 45.90625 40.484375 42.875 44.328125 
Q 39.84375 48.1875 33.796875 48.1875 
Q 26.515625 48.1875 22.3125 43.546875 
Q 18.109375 38.921875 18.109375 30.90625 
L 18.109375 0 
L 9.078125 0 
L 9.078125 54.6875 
L 18.109375 54.6875 
L 18.109375 46.1875 
Q 21.34375 51.125 25.703125 53.5625 
Q 30.078125 56 35.796875 56 
Q 45.21875 56 50.046875 50.171875 
Q 54.890625 44.34375 54.890625 33.015625 
z
" id="DejaVuSans-110"/>
      <path d="M 8.5 21.578125 
L 8.5 54.6875 
L 17.484375 54.6875 
L 17.484375 21.921875 
Q 17.484375 14.15625 20.5 10.265625 
Q 23.53125 6.390625 29.59375 6.390625 
Q 36.859375 6.390625 41.078125 11.03125 
Q 45.3125 15.671875 45.3125 23.6875 
L 45.3125 54.6875 
L 54.296875 54.6875 
L 54.296875 0 
L 45.3125 0 
L 45.3125 8.40625 
Q 42.046875 3.421875 37.71875 1 
Q 33.40625 -1.421875 27.6875 -1.421875 
Q 18.265625 -1.421875 13.375 4.4375 
Q 8.5 10.296875 8.5 21.578125 
z
M 31.109375 56 
z
" id="DejaVuSans-117"/>
      <path d="M 52 44.1875 
Q 55.375 50.25 60.0625 53.125 
Q 64.75 56 71.09375 56 
Q 79.640625 56 84.28125 50.015625 
Q 88.921875 44.046875 88.921875 33.015625 
L 88.921875 0 
L 79.890625 0 
L 79.890625 32.71875 
Q 79.890625 40.578125 77.09375 44.375 
Q 74.3125 48.1875 68.609375 48.1875 
Q 61.625 48.1875 57.5625 43.546875 
Q 53.515625 38.921875 53.515625 30.90625 
L 53.515625 0 
L 44.484375 0 
L 44.484375 32.71875 
Q 44.484375 40.625 41.703125 44.40625 
Q 38.921875 48.1875 33.109375 48.1875 
Q 26.21875 48.1875 22.15625 43.53125 
Q 18.109375 38.875 18.109375 30.90625 
L 18.109375 0 
L 9.078125 0 
L 9.078125 54.6875 
L 18.109375 54.6875 
L 18.109375 46.1875 
Q 21.1875 51.21875 25.484375 53.609375 
Q 29.78125 56 35.6875 56 
Q 41.65625 56 45.828125 52.96875 
Q 50 49.953125 52 44.1875 
z
" id="DejaVuSans-109"/>
      <path d="M 48.6875 27.296875 
Q 48.6875 37.203125 44.609375 42.84375 
Q 40.53125 48.484375 33.40625 48.484375 
Q 26.265625 48.484375 22.1875 42.84375 
Q 18.109375 37.203125 18.109375 27.296875 
Q 18.109375 17.390625 22.1875 11.75 
Q 26.265625 6.109375 33.40625 6.109375 
Q 40.53125 6.109375 44.609375 11.75 
Q 48.6875 17.390625 48.6875 27.296875 
z
M 18.109375 46.390625 
Q 20.953125 51.265625 25.265625 53.625 
Q 29.59375 56 35.59375 56 
Q 45.5625 56 51.78125 48.09375 
Q 58.015625 40.1875 58.015625 27.296875 
Q 58.015625 14.40625 51.78125 6.484375 
Q 45.5625 -1.421875 35.59375 -1.421875 
Q 29.59375 -1.421875 25.265625 0.953125 
Q 20.953125 3.328125 18.109375 8.203125 
L 18.109375 0 
L 9.078125 0 
L 9.078125 75.984375 
L 18.109375 75.984375 
z
" id="DejaVuSans-98"/>
     </defs>
     <g transform="translate(165.418281 417.570313)scale(0.1 -0.1)">
      <use xlink:href="#DejaVuSans-114"/>
      <use x="41.082031" xlink:href="#DejaVuSans-101"/>
      <use x="102.605469" xlink:href="#DejaVuSans-99"/>
      <use x="157.585938" xlink:href="#DejaVuSans-105"/>
      <use x="185.369141" xlink:href="#DejaVuSans-112"/>
      <use x="248.845703" xlink:href="#DejaVuSans-101"/>
      <use x="310.369141" xlink:href="#DejaVuSans-95"/>
      <use x="360.369141" xlink:href="#DejaVuSans-110"/>
      <use x="423.748047" xlink:href="#DejaVuSans-117"/>
      <use x="487.126953" xlink:href="#DejaVuSans-109"/>
      <use x="584.539062" xlink:href="#DejaVuSans-98"/>
      <use x="648.015625" xlink:href="#DejaVuSans-101"/>
      <use x="709.539062" xlink:href="#DejaVuSans-114"/>
     </g>
    </g>
   </g>
   <g id="matplotlib.axis_2">
    <g id="ytick_1">
     <g id="line2d_8">
      <defs>
       <path d="M 0 0 
L -3.5 0 
" id="md2c9fa3be2" style="stroke:#000000;stroke-width:0.8;"/>
      </defs>
      <g>
       <use style="stroke:#000000;stroke-width:0.8;" x="48.58125" xlink:href="#md2c9fa3be2" y="374.360218"/>
      </g>
     </g>
     <g id="text_9">
      <!-- 1.0 -->
      <g transform="translate(25.678125 378.159437)scale(0.1 -0.1)">
       <use xlink:href="#DejaVuSans-49"/>
       <use x="63.623047" xlink:href="#DejaVuSans-46"/>
       <use x="95.410156" xlink:href="#DejaVuSans-48"/>
      </g>
     </g>
    </g>
    <g id="ytick_2">
     <g id="line2d_9">
      <g>
       <use style="stroke:#000000;stroke-width:0.8;" x="48.58125" xlink:href="#md2c9fa3be2" y="338.892463"/>
      </g>
     </g>
     <g id="text_10">
      <!-- 1.5 -->
      <g transform="translate(25.678125 342.691681)scale(0.1 -0.1)">
       <use xlink:href="#DejaVuSans-49"/>
       <use x="63.623047" xlink:href="#DejaVuSans-46"/>
       <use x="95.410156" xlink:href="#DejaVuSans-53"/>
      </g>
     </g>
    </g>
    <g id="ytick_3">
     <g id="line2d_10">
      <g>
       <use style="stroke:#000000;stroke-width:0.8;" x="48.58125" xlink:href="#md2c9fa3be2" y="303.424707"/>
      </g>
     </g>
     <g id="text_11">
      <!-- 2.0 -->
      <g transform="translate(25.678125 307.223926)scale(0.1 -0.1)">
       <use xlink:href="#DejaVuSans-50"/>
       <use x="63.623047" xlink:href="#DejaVuSans-46"/>
       <use x="95.410156" xlink:href="#DejaVuSans-48"/>
      </g>
     </g>
    </g>
    <g id="ytick_4">
     <g id="line2d_11">
      <g>
       <use style="stroke:#000000;stroke-width:0.8;" x="48.58125" xlink:href="#md2c9fa3be2" y="267.956952"/>
      </g>
     </g>
     <g id="text_12">
      <!-- 2.5 -->
      <g transform="translate(25.678125 271.756171)scale(0.1 -0.1)">
       <use xlink:href="#DejaVuSans-50"/>
       <use x="63.623047" xlink:href="#DejaVuSans-46"/>
       <use x="95.410156" xlink:href="#DejaVuSans-53"/>
      </g>
     </g>
    </g>
    <g id="ytick_5">
     <g id="line2d_12">
      <g>
       <use style="stroke:#000000;stroke-width:0.8;" x="48.58125" xlink:href="#md2c9fa3be2" y="232.489196"/>
      </g>
     </g>
     <g id="text_13">
      <!-- 3.0 -->
      <g transform="translate(25.678125 236.288415)scale(0.1 -0.1)">
       <use xlink:href="#DejaVuSans-51"/>
       <use x="63.623047" xlink:href="#DejaVuSans-46"/>
       <use x="95.410156" xlink:href="#DejaVuSans-48"/>
      </g>
     </g>
    </g>
    <g id="ytick_6">
     <g id="line2d_13">
      <g>
       <use style="stroke:#000000;stroke-width:0.8;" x="48.58125" xlink:href="#md2c9fa3be2" y="197.021441"/>
      </g>
     </g>
     <g id="text_14">
      <!-- 3.5 -->
      <g transform="translate(25.678125 200.82066)scale(0.1 -0.1)">
       <use xlink:href="#DejaVuSans-51"/>
       <use x="63.623047" xlink:href="#DejaVuSans-46"/>
       <use x="95.410156" xlink:href="#DejaVuSans-53"/>
      </g>
     </g>
    </g>
    <g id="ytick_7">
     <g id="line2d_14">
      <g>
       <use style="stroke:#000000;stroke-width:0.8;" x="48.58125" xlink:href="#md2c9fa3be2" y="161.553686"/>
      </g>
     </g>
     <g id="text_15">
      <!-- 4.0 -->
      <defs>
       <path d="M 37.796875 64.3125 
L 12.890625 25.390625 
L 37.796875 25.390625 
z
M 35.203125 72.90625 
L 47.609375 72.90625 
L 47.609375 25.390625 
L 58.015625 25.390625 
L 58.015625 17.1875 
L 47.609375 17.1875 
L 47.609375 0 
L 37.796875 0 
L 37.796875 17.1875 
L 4.890625 17.1875 
L 4.890625 26.703125 
z
" id="DejaVuSans-52"/>
      </defs>
      <g transform="translate(25.678125 165.352904)scale(0.1 -0.1)">
       <use xlink:href="#DejaVuSans-52"/>
       <use x="63.623047" xlink:href="#DejaVuSans-46"/>
       <use x="95.410156" xlink:href="#DejaVuSans-48"/>
      </g>
     </g>
    </g>
    <g id="ytick_8">
     <g id="line2d_15">
      <g>
       <use style="stroke:#000000;stroke-width:0.8;" x="48.58125" xlink:href="#md2c9fa3be2" y="126.08593"/>
      </g>
     </g>
     <g id="text_16">
      <!-- 4.5 -->
      <g transform="translate(25.678125 129.885149)scale(0.1 -0.1)">
       <use xlink:href="#DejaVuSans-52"/>
       <use x="63.623047" xlink:href="#DejaVuSans-46"/>
       <use x="95.410156" xlink:href="#DejaVuSans-53"/>
      </g>
     </g>
    </g>
    <g id="ytick_9">
     <g id="line2d_16">
      <g>
       <use style="stroke:#000000;stroke-width:0.8;" x="48.58125" xlink:href="#md2c9fa3be2" y="90.618175"/>
      </g>
     </g>
     <g id="text_17">
      <!-- 5.0 -->
      <g transform="translate(25.678125 94.417394)scale(0.1 -0.1)">
       <use xlink:href="#DejaVuSans-53"/>
       <use x="63.623047" xlink:href="#DejaVuSans-46"/>
       <use x="95.410156" xlink:href="#DejaVuSans-48"/>
      </g>
     </g>
    </g>
    <g id="text_18">
     <!-- avg_rating -->
     <defs>
      <path d="M 34.28125 27.484375 
Q 23.390625 27.484375 19.1875 25 
Q 14.984375 22.515625 14.984375 16.5 
Q 14.984375 11.71875 18.140625 8.90625 
Q 21.296875 6.109375 26.703125 6.109375 
Q 34.1875 6.109375 38.703125 11.40625 
Q 43.21875 16.703125 43.21875 25.484375 
L 43.21875 27.484375 
z
M 52.203125 31.203125 
L 52.203125 0 
L 43.21875 0 
L 43.21875 8.296875 
Q 40.140625 3.328125 35.546875 0.953125 
Q 30.953125 -1.421875 24.3125 -1.421875 
Q 15.921875 -1.421875 10.953125 3.296875 
Q 6 8.015625 6 15.921875 
Q 6 25.140625 12.171875 29.828125 
Q 18.359375 34.515625 30.609375 34.515625 
L 43.21875 34.515625 
L 43.21875 35.40625 
Q 43.21875 41.609375 39.140625 45 
Q 35.0625 48.390625 27.6875 48.390625 
Q 23 48.390625 18.546875 47.265625 
Q 14.109375 46.140625 10.015625 43.890625 
L 10.015625 52.203125 
Q 14.9375 54.109375 19.578125 55.046875 
Q 24.21875 56 28.609375 56 
Q 40.484375 56 46.34375 49.84375 
Q 52.203125 43.703125 52.203125 31.203125 
z
" id="DejaVuSans-97"/>
      <path d="M 2.984375 54.6875 
L 12.5 54.6875 
L 29.59375 8.796875 
L 46.6875 54.6875 
L 56.203125 54.6875 
L 35.6875 0 
L 23.484375 0 
z
" id="DejaVuSans-118"/>
      <path d="M 45.40625 27.984375 
Q 45.40625 37.75 41.375 43.109375 
Q 37.359375 48.484375 30.078125 48.484375 
Q 22.859375 48.484375 18.828125 43.109375 
Q 14.796875 37.75 14.796875 27.984375 
Q 14.796875 18.265625 18.828125 12.890625 
Q 22.859375 7.515625 30.078125 7.515625 
Q 37.359375 7.515625 41.375 12.890625 
Q 45.40625 18.265625 45.40625 27.984375 
z
M 54.390625 6.78125 
Q 54.390625 -7.171875 48.1875 -13.984375 
Q 42 -20.796875 29.203125 -20.796875 
Q 24.46875 -20.796875 20.265625 -20.09375 
Q 16.0625 -19.390625 12.109375 -17.921875 
L 12.109375 -9.1875 
Q 16.0625 -11.328125 19.921875 -12.34375 
Q 23.78125 -13.375 27.78125 -13.375 
Q 36.625 -13.375 41.015625 -8.765625 
Q 45.40625 -4.15625 45.40625 5.171875 
L 45.40625 9.625 
Q 42.625 4.78125 38.28125 2.390625 
Q 33.9375 0 27.875 0 
Q 17.828125 0 11.671875 7.65625 
Q 5.515625 15.328125 5.515625 27.984375 
Q 5.515625 40.671875 11.671875 48.328125 
Q 17.828125 56 27.875 56 
Q 33.9375 56 38.28125 53.609375 
Q 42.625 51.21875 45.40625 46.390625 
L 45.40625 54.6875 
L 54.390625 54.6875 
z
" id="DejaVuSans-103"/>
      <path d="M 18.3125 70.21875 
L 18.3125 54.6875 
L 36.8125 54.6875 
L 36.8125 47.703125 
L 18.3125 47.703125 
L 18.3125 18.015625 
Q 18.3125 11.328125 20.140625 9.421875 
Q 21.96875 7.515625 27.59375 7.515625 
L 36.8125 7.515625 
L 36.8125 0 
L 27.59375 0 
Q 17.1875 0 13.234375 3.875 
Q 9.28125 7.765625 9.28125 18.015625 
L 9.28125 47.703125 
L 2.6875 47.703125 
L 2.6875 54.6875 
L 9.28125 54.6875 
L 9.28125 70.21875 
z
" id="DejaVuSans-116"/>
     </defs>
     <g transform="translate(19.320312 258.998571)rotate(-90)scale(0.1 -0.1)">
      <use xlink:href="#DejaVuSans-97"/>
      <use x="61.279297" xlink:href="#DejaVuSans-118"/>
      <use x="120.458984" xlink:href="#DejaVuSans-103"/>
      <use x="183.935547" xlink:href="#DejaVuSans-95"/>
      <use x="233.935547" xlink:href="#DejaVuSans-114"/>
      <use x="275.048828" xlink:href="#DejaVuSans-97"/>
      <use x="336.328125" xlink:href="#DejaVuSans-116"/>
      <use x="375.537109" xlink:href="#DejaVuSans-105"/>
      <use x="403.320312" xlink:href="#DejaVuSans-110"/>
      <use x="466.699219" xlink:href="#DejaVuSans-103"/>
     </g>
    </g>
   </g>
   <g id="patch_3">
    <path d="M 48.58125 389.29375 
L 48.58125 75.684643 
" style="fill:none;stroke:#000000;stroke-linecap:square;stroke-linejoin:miter;stroke-width:0.8;"/>
   </g>
   <g id="patch_4">
    <path d="M 48.58125 389.29375 
L 357.3225 389.29375 
" style="fill:none;stroke:#000000;stroke-linecap:square;stroke-linejoin:miter;stroke-width:0.8;"/>
   </g>
  </g>
  <g id="axes_2">
   <g id="patch_5">
    <path d="M 48.58125 64.870536 
L 357.3225 64.870536 
L 357.3225 10.8 
L 48.58125 10.8 
z
" style="fill:#ffffff;"/>
   </g>
   <g id="patch_6">
    <path clip-path="url(#pd3a5751a4b)" d="M 63.504033 64.870536 
L 98.365994 64.870536 
L 98.365994 40.839187 
L 63.504033 40.839187 
z
" style="fill:#1f77b4;opacity:0.4;"/>
   </g>
   <g id="patch_7">
    <path clip-path="url(#pd3a5751a4b)" d="M 98.365994 64.870536 
L 133.227954 64.870536 
L 133.227954 32.256562 
L 98.365994 32.256562 
z
" style="fill:#1f77b4;opacity:0.4;"/>
   </g>
   <g id="patch_8">
    <path clip-path="url(#pd3a5751a4b)" d="M 133.227954 64.870536 
L 168.089915 64.870536 
L 168.089915 20.240887 
L 133.227954 20.240887 
z
" style="fill:#1f77b4;opacity:0.4;"/>
   </g>
   <g id="patch_9">
    <path clip-path="url(#pd3a5751a4b)" d="M 168.089915 64.870536 
L 202.951875 64.870536 
L 202.951875 13.374787 
L 168.089915 13.374787 
z
" style="fill:#1f77b4;opacity:0.4;"/>
   </g>
   <g id="patch_10">
    <path clip-path="url(#pd3a5751a4b)" d="M 202.951875 64.870536 
L 237.813835 64.870536 
L 237.813835 25.390462 
L 202.951875 25.390462 
z
" style="fill:#1f77b4;opacity:0.4;"/>
   </g>
   <g id="patch_11">
    <path clip-path="url(#pd3a5751a4b)" d="M 237.813835 64.870536 
L 272.675796 64.870536 
L 272.675796 33.973087 
L 237.813835 33.973087 
z
" style="fill:#1f77b4;opacity:0.4;"/>
   </g>
   <g id="patch_12">
    <path clip-path="url(#pd3a5751a4b)" d="M 272.675796 64.870536 
L 307.537756 64.870536 
L 307.537756 44.272236 
L 272.675796 44.272236 
z
" style="fill:#1f77b4;opacity:0.4;"/>
   </g>
   <g id="patch_13">
    <path clip-path="url(#pd3a5751a4b)" d="M 307.537756 64.870536 
L 342.399717 64.870536 
L 342.399717 56.287911 
L 307.537756 56.287911 
z
" style="fill:#1f77b4;opacity:0.4;"/>
   </g>
   <g id="matplotlib.axis_3">
    <g id="xtick_8">
     <g id="line2d_17">
      <g>
       <use style="stroke:#000000;stroke-width:0.8;" x="63.504033" xlink:href="#mc07d7044a1" y="64.870536"/>
      </g>
     </g>
    </g>
    <g id="xtick_9">
     <g id="line2d_18">
      <g>
       <use style="stroke:#000000;stroke-width:0.8;" x="109.25384" xlink:href="#mc07d7044a1" y="64.870536"/>
      </g>
     </g>
    </g>
    <g id="xtick_10">
     <g id="line2d_19">
      <g>
       <use style="stroke:#000000;stroke-width:0.8;" x="155.003646" xlink:href="#mc07d7044a1" y="64.870536"/>
      </g>
     </g>
    </g>
    <g id="xtick_11">
     <g id="line2d_20">
      <g>
       <use style="stroke:#000000;stroke-width:0.8;" x="200.753452" xlink:href="#mc07d7044a1" y="64.870536"/>
      </g>
     </g>
    </g>
    <g id="xtick_12">
     <g id="line2d_21">
      <g>
       <use style="stroke:#000000;stroke-width:0.8;" x="246.503258" xlink:href="#mc07d7044a1" y="64.870536"/>
      </g>
     </g>
    </g>
    <g id="xtick_13">
     <g id="line2d_22">
      <g>
       <use style="stroke:#000000;stroke-width:0.8;" x="292.253064" xlink:href="#mc07d7044a1" y="64.870536"/>
      </g>
     </g>
    </g>
    <g id="xtick_14">
     <g id="line2d_23">
      <g>
       <use style="stroke:#000000;stroke-width:0.8;" x="338.00287" xlink:href="#mc07d7044a1" y="64.870536"/>
      </g>
     </g>
    </g>
   </g>
   <g id="matplotlib.axis_4">
    <g id="ytick_10"/>
    <g id="ytick_11"/>
   </g>
   <g id="patch_14">
    <path d="M 48.58125 64.870536 
L 357.3225 64.870536 
" style="fill:none;stroke:#000000;stroke-linecap:square;stroke-linejoin:miter;stroke-width:0.8;"/>
   </g>
  </g>
  <g id="axes_3">
   <g id="patch_15">
    <path d="M 367.96875 389.29375 
L 421.2 389.29375 
L 421.2 75.684643 
L 367.96875 75.684643 
z
" style="fill:#ffffff;"/>
   </g>
   <g id="patch_16">
    <path clip-path="url(#p19ee656bdb)" d="M 367.96875 374.360218 
L 370.950893 374.360218 
L 370.950893 356.62634 
L 367.96875 356.62634 
z
" style="fill:#1f77b4;opacity:0.4;"/>
   </g>
   <g id="patch_17">
    <path clip-path="url(#p19ee656bdb)" d="M 367.96875 356.62634 
L 367.96875 356.62634 
L 367.96875 338.892463 
L 367.96875 338.892463 
z
" style="fill:#1f77b4;opacity:0.4;"/>
   </g>
   <g id="patch_18">
    <path clip-path="url(#p19ee656bdb)" d="M 367.96875 338.892463 
L 367.96875 338.892463 
L 367.96875 321.158585 
L 367.96875 321.158585 
z
" style="fill:#1f77b4;opacity:0.4;"/>
   </g>
   <g id="patch_19">
    <path clip-path="url(#p19ee656bdb)" d="M 367.96875 321.158585 
L 367.96875 321.158585 
L 367.96875 303.424707 
L 367.96875 303.424707 
z
" style="fill:#1f77b4;opacity:0.4;"/>
   </g>
   <g id="patch_20">
    <path clip-path="url(#p19ee656bdb)" d="M 367.96875 303.424707 
L 373.933036 303.424707 
L 373.933036 285.69083 
L 367.96875 285.69083 
z
" style="fill:#1f77b4;opacity:0.4;"/>
   </g>
   <g id="patch_21">
    <path clip-path="url(#p19ee656bdb)" d="M 367.96875 285.69083 
L 367.96875 285.69083 
L 367.96875 267.956952 
L 367.96875 267.956952 
z
" style="fill:#1f77b4;opacity:0.4;"/>
   </g>
   <g id="patch_22">
    <path clip-path="url(#p19ee656bdb)" d="M 367.96875 267.956952 
L 367.96875 267.956952 
L 367.96875 250.223074 
L 367.96875 250.223074 
z
" style="fill:#1f77b4;opacity:0.4;"/>
   </g>
   <g id="patch_23">
    <path clip-path="url(#p19ee656bdb)" d="M 367.96875 250.223074 
L 367.96875 250.223074 
L 367.96875 232.489196 
L 367.96875 232.489196 
z
" style="fill:#1f77b4;opacity:0.4;"/>
   </g>
   <g id="patch_24">
    <path clip-path="url(#p19ee656bdb)" d="M 367.96875 232.489196 
L 373.933036 232.489196 
L 373.933036 214.755319 
L 367.96875 214.755319 
z
" style="fill:#1f77b4;opacity:0.4;"/>
   </g>
   <g id="patch_25">
    <path clip-path="url(#p19ee656bdb)" d="M 367.96875 214.755319 
L 370.950893 214.755319 
L 370.950893 197.021441 
L 367.96875 197.021441 
z
" style="fill:#1f77b4;opacity:0.4;"/>
   </g>
   <g id="patch_26">
    <path clip-path="url(#p19ee656bdb)" d="M 367.96875 197.021441 
L 379.897321 197.021441 
L 379.897321 179.287563 
L 367.96875 179.287563 
z
" style="fill:#1f77b4;opacity:0.4;"/>
   </g>
   <g id="patch_27">
    <path clip-path="url(#p19ee656bdb)" d="M 367.96875 179.287563 
L 381.388393 179.287563 
L 381.388393 161.553686 
L 367.96875 161.553686 
z
" style="fill:#1f77b4;opacity:0.4;"/>
   </g>
   <g id="patch_28">
    <path clip-path="url(#p19ee656bdb)" d="M 367.96875 161.553686 
L 406.736607 161.553686 
L 406.736607 143.819808 
L 367.96875 143.819808 
z
" style="fill:#1f77b4;opacity:0.4;"/>
   </g>
   <g id="patch_29">
    <path clip-path="url(#p19ee656bdb)" d="M 367.96875 143.819808 
L 408.227679 143.819808 
L 408.227679 126.08593 
L 367.96875 126.08593 
z
" style="fill:#1f77b4;opacity:0.4;"/>
   </g>
   <g id="patch_30">
    <path clip-path="url(#p19ee656bdb)" d="M 367.96875 126.08593 
L 418.665179 126.08593 
L 418.665179 108.352053 
L 367.96875 108.352053 
z
" style="fill:#1f77b4;opacity:0.4;"/>
   </g>
   <g id="patch_31">
    <path clip-path="url(#p19ee656bdb)" d="M 367.96875 108.352053 
L 414.191964 108.352053 
L 414.191964 90.618175 
L 367.96875 90.618175 
z
" style="fill:#1f77b4;opacity:0.4;"/>
   </g>
   <g id="matplotlib.axis_5">
    <g id="xtick_15"/>
    <g id="xtick_16"/>
   </g>
   <g id="matplotlib.axis_6">
    <g id="ytick_12">
     <g id="line2d_24">
      <g>
       <use style="stroke:#000000;stroke-width:0.8;" x="367.96875" xlink:href="#md2c9fa3be2" y="374.360218"/>
      </g>
     </g>
    </g>
    <g id="ytick_13">
     <g id="line2d_25">
      <g>
       <use style="stroke:#000000;stroke-width:0.8;" x="367.96875" xlink:href="#md2c9fa3be2" y="338.892463"/>
      </g>
     </g>
    </g>
    <g id="ytick_14">
     <g id="line2d_26">
      <g>
       <use style="stroke:#000000;stroke-width:0.8;" x="367.96875" xlink:href="#md2c9fa3be2" y="303.424707"/>
      </g>
     </g>
    </g>
    <g id="ytick_15">
     <g id="line2d_27">
      <g>
       <use style="stroke:#000000;stroke-width:0.8;" x="367.96875" xlink:href="#md2c9fa3be2" y="267.956952"/>
      </g>
     </g>
    </g>
    <g id="ytick_16">
     <g id="line2d_28">
      <g>
       <use style="stroke:#000000;stroke-width:0.8;" x="367.96875" xlink:href="#md2c9fa3be2" y="232.489196"/>
      </g>
     </g>
    </g>
    <g id="ytick_17">
     <g id="line2d_29">
      <g>
       <use style="stroke:#000000;stroke-width:0.8;" x="367.96875" xlink:href="#md2c9fa3be2" y="197.021441"/>
      </g>
     </g>
    </g>
    <g id="ytick_18">
     <g id="line2d_30">
      <g>
       <use style="stroke:#000000;stroke-width:0.8;" x="367.96875" xlink:href="#md2c9fa3be2" y="161.553686"/>
      </g>
     </g>
    </g>
    <g id="ytick_19">
     <g id="line2d_31">
      <g>
       <use style="stroke:#000000;stroke-width:0.8;" x="367.96875" xlink:href="#md2c9fa3be2" y="126.08593"/>
      </g>
     </g>
    </g>
    <g id="ytick_20">
     <g id="line2d_32">
      <g>
       <use style="stroke:#000000;stroke-width:0.8;" x="367.96875" xlink:href="#md2c9fa3be2" y="90.618175"/>
      </g>
     </g>
    </g>
   </g>
   <g id="patch_32">
    <path d="M 367.96875 389.29375 
L 367.96875 75.684643 
" style="fill:none;stroke:#000000;stroke-linecap:square;stroke-linejoin:miter;stroke-width:0.8;"/>
   </g>
  </g>
 </g>
 <defs>
  <clipPath id="pa540a267a8">
   <rect height="313.609107" width="308.74125" x="48.58125" y="75.684643"/>
  </clipPath>
  <clipPath id="pd3a5751a4b">
   <rect height="54.070536" width="308.74125" x="48.58125" y="10.8"/>
  </clipPath>
  <clipPath id="p19ee656bdb">
   <rect height="313.609107" width="53.23125" x="367.96875" y="75.684643"/>
  </clipPath>
 </defs>
</svg>
