<?xml version="1.0" encoding="utf-8" standalone="no"?>
<!DOCTYPE svg PUBLIC "-//W3C//DTD SVG 1.1//EN"
  "http://www.w3.org/Graphics/SVG/1.1/DTD/svg11.dtd">
<!-- Created with matplotlib (https://matplotlib.org/) -->
<svg height="360pt" version="1.1" viewBox="0 0 360 360" width="360pt" xmlns="http://www.w3.org/2000/svg" xmlns:xlink="http://www.w3.org/1999/xlink">
 <defs>
  <style type="text/css">
*{stroke-linecap:butt;stroke-linejoin:round;}
  </style>
 </defs>
 <g id="figure_1">
  <g id="patch_1">
   <path d="M 0 360 
L 360 360 
L 360 0 
L 0 0 
z
" style="fill:#ffffff;"/>
  </g>
  <g id="axes_1">
   <g id="patch_2">
    <path d="M 48.70625 317.29375 
L 347.27603 317.29375 
L 347.27603 10.8 
L 48.70625 10.8 
z
" style="fill:#ffffff;"/>
   </g>
   <g id="PathCollection_1">
    <defs>
     <path d="M 0 3 
C 0.795609 3 1.55874 2.683901 2.12132 2.12132 
C 2.683901 1.55874 3 0.795609 3 0 
C 3 -0.795609 2.683901 -1.55874 2.12132 -2.12132 
C 1.55874 -2.683901 0.795609 -3 0 -3 
C -0.795609 -3 -1.55874 -2.683901 -2.12132 -2.12132 
C -2.683901 -1.55874 -3 -0.795609 -3 0 
C -3 0.795609 -2.683901 1.55874 -2.12132 2.12132 
C -1.55874 2.683901 -0.795609 3 0 3 
z
" id="m56223fa081" style="stroke:#1f77b4;stroke-opacity:0.8;"/>
    </defs>
    <g clip-path="url(#pe8a887ced0)">
     <use style="fill:#1f77b4;fill-opacity:0.8;stroke:#1f77b4;stroke-opacity:0.8;" x="330.834928" xlink:href="#m56223fa081" y="53.751497"/>
     <use style="fill:#1f77b4;fill-opacity:0.8;stroke:#1f77b4;stroke-opacity:0.8;" x="277.311721" xlink:href="#m56223fa081" y="75.764742"/>
     <use style="fill:#1f77b4;fill-opacity:0.8;stroke:#1f77b4;stroke-opacity:0.8;" x="280.742915" xlink:href="#m56223fa081" y="77.258978"/>
     <use style="fill:#1f77b4;fill-opacity:0.8;stroke:#1f77b4;stroke-opacity:0.8;" x="254.624023" xlink:href="#m56223fa081" y="70.013896"/>
     <use style="fill:#1f77b4;fill-opacity:0.8;stroke:#1f77b4;stroke-opacity:0.8;" x="276.911657" xlink:href="#m56223fa081" y="57.690892"/>
     <use style="fill:#1f77b4;fill-opacity:0.8;stroke:#1f77b4;stroke-opacity:0.8;" x="256.003679" xlink:href="#m56223fa081" y="82.148128"/>
     <use style="fill:#1f77b4;fill-opacity:0.8;stroke:#1f77b4;stroke-opacity:0.8;" x="291.140592" xlink:href="#m56223fa081" y="56.32791"/>
     <use style="fill:#1f77b4;fill-opacity:0.8;stroke:#1f77b4;stroke-opacity:0.8;" x="265.603161" xlink:href="#m56223fa081" y="74.333295"/>
     <use style="fill:#1f77b4;fill-opacity:0.8;stroke:#1f77b4;stroke-opacity:0.8;" x="248.980023" xlink:href="#m56223fa081" y="57.014427"/>
     <use style="fill:#1f77b4;fill-opacity:0.8;stroke:#1f77b4;stroke-opacity:0.8;" x="235.112936" xlink:href="#m56223fa081" y="65.126119"/>
     <use style="fill:#1f77b4;fill-opacity:0.8;stroke:#1f77b4;stroke-opacity:0.8;" x="246.478829" xlink:href="#m56223fa081" y="78.871725"/>
     <use style="fill:#1f77b4;fill-opacity:0.8;stroke:#1f77b4;stroke-opacity:0.8;" x="281.646024" xlink:href="#m56223fa081" y="42.705529"/>
     <use style="fill:#1f77b4;fill-opacity:0.8;stroke:#1f77b4;stroke-opacity:0.8;" x="210.672866" xlink:href="#m56223fa081" y="81.076856"/>
     <use style="fill:#1f77b4;fill-opacity:0.8;stroke:#1f77b4;stroke-opacity:0.8;" x="247.74897" xlink:href="#m56223fa081" y="60.496969"/>
     <use style="fill:#1f77b4;fill-opacity:0.8;stroke:#1f77b4;stroke-opacity:0.8;" x="253.557131" xlink:href="#m56223fa081" y="70.700525"/>
     <use style="fill:#1f77b4;fill-opacity:0.8;stroke:#1f77b4;stroke-opacity:0.8;" x="226.89393" xlink:href="#m56223fa081" y="89.18242"/>
     <use style="fill:#1f77b4;fill-opacity:0.8;stroke:#1f77b4;stroke-opacity:0.8;" x="208.509849" xlink:href="#m56223fa081" y="65.052414"/>
     <use style="fill:#1f77b4;fill-opacity:0.8;stroke:#1f77b4;stroke-opacity:0.8;" x="223.221071" xlink:href="#m56223fa081" y="75.197424"/>
     <use style="fill:#1f77b4;fill-opacity:0.8;stroke:#1f77b4;stroke-opacity:0.8;" x="199.859613" xlink:href="#m56223fa081" y="78.784657"/>
     <use style="fill:#1f77b4;fill-opacity:0.8;stroke:#1f77b4;stroke-opacity:0.8;" x="246.046327" xlink:href="#m56223fa081" y="84.346299"/>
     <use style="fill:#1f77b4;fill-opacity:0.8;stroke:#1f77b4;stroke-opacity:0.8;" x="197.000821" xlink:href="#m56223fa081" y="71.609051"/>
     <use style="fill:#1f77b4;fill-opacity:0.8;stroke:#1f77b4;stroke-opacity:0.8;" x="197.000821" xlink:href="#m56223fa081" y="76.338428"/>
     <use style="fill:#1f77b4;fill-opacity:0.8;stroke:#1f77b4;stroke-opacity:0.8;" x="209.605975" xlink:href="#m56223fa081" y="86.772107"/>
     <use style="fill:#1f77b4;fill-opacity:0.8;stroke:#1f77b4;stroke-opacity:0.8;" x="212.724909" xlink:href="#m56223fa081" y="55.594735"/>
     <use style="fill:#1f77b4;fill-opacity:0.8;stroke:#1f77b4;stroke-opacity:0.8;" x="231.527906" xlink:href="#m56223fa081" y="47.201655"/>
     <use style="fill:#1f77b4;fill-opacity:0.8;stroke:#1f77b4;stroke-opacity:0.8;" x="161.07771" xlink:href="#m56223fa081" y="109.698125"/>
     <use style="fill:#1f77b4;fill-opacity:0.8;stroke:#1f77b4;stroke-opacity:0.8;" x="226.18584" xlink:href="#m56223fa081" y="112.913337"/>
     <use style="fill:#1f77b4;fill-opacity:0.8;stroke:#1f77b4;stroke-opacity:0.8;" x="210.672866" xlink:href="#m56223fa081" y="87.544433"/>
     <use style="fill:#1f77b4;fill-opacity:0.8;stroke:#1f77b4;stroke-opacity:0.8;" x="210.672866" xlink:href="#m56223fa081" y="54.661039"/>
     <use style="fill:#1f77b4;fill-opacity:0.8;stroke:#1f77b4;stroke-opacity:0.8;" x="232.758959" xlink:href="#m56223fa081" y="77.780692"/>
     <use style="fill:#1f77b4;fill-opacity:0.8;stroke:#1f77b4;stroke-opacity:0.8;" x="153.049665" xlink:href="#m56223fa081" y="50.283859"/>
     <use style="fill:#1f77b4;fill-opacity:0.8;stroke:#1f77b4;stroke-opacity:0.8;" x="202.527673" xlink:href="#m56223fa081" y="79.04291"/>
     <use style="fill:#1f77b4;fill-opacity:0.8;stroke:#1f77b4;stroke-opacity:0.8;" x="142.995563" xlink:href="#m56223fa081" y="64.545695"/>
     <use style="fill:#1f77b4;fill-opacity:0.8;stroke:#1f77b4;stroke-opacity:0.8;" x="161.07771" xlink:href="#m56223fa081" y="94.396049"/>
     <use style="fill:#1f77b4;fill-opacity:0.8;stroke:#1f77b4;stroke-opacity:0.8;" x="186.94672" xlink:href="#m56223fa081" y="59.625915"/>
     <use style="fill:#1f77b4;fill-opacity:0.8;stroke:#1f77b4;stroke-opacity:0.8;" x="199.859613" xlink:href="#m56223fa081" y="76.068389"/>
     <use style="fill:#1f77b4;fill-opacity:0.8;stroke:#1f77b4;stroke-opacity:0.8;" x="153.049665" xlink:href="#m56223fa081" y="73.113852"/>
     <use style="fill:#1f77b4;fill-opacity:0.8;stroke:#1f77b4;stroke-opacity:0.8;" x="193.921913" xlink:href="#m56223fa081" y="94.117446"/>
     <use style="fill:#1f77b4;fill-opacity:0.8;stroke:#1f77b4;stroke-opacity:0.8;" x="211.712043" xlink:href="#m56223fa081" y="44.598685"/>
     <use style="fill:#1f77b4;fill-opacity:0.8;stroke:#1f77b4;stroke-opacity:0.8;" x="180.779757" xlink:href="#m56223fa081" y="84.077408"/>
     <use style="fill:#1f77b4;fill-opacity:0.8;stroke:#1f77b4;stroke-opacity:0.8;" x="208.509849" xlink:href="#m56223fa081" y="46.713794"/>
     <use style="fill:#1f77b4;fill-opacity:0.8;stroke:#1f77b4;stroke-opacity:0.8;" x="167.760887" xlink:href="#m56223fa081" y="56.651346"/>
     <use style="fill:#1f77b4;fill-opacity:0.8;stroke:#1f77b4;stroke-opacity:0.8;" x="142.995563" xlink:href="#m56223fa081" y="74.495813"/>
     <use style="fill:#1f77b4;fill-opacity:0.8;stroke:#1f77b4;stroke-opacity:0.8;" x="161.07771" xlink:href="#m56223fa081" y="91.230103"/>
     <use style="fill:#1f77b4;fill-opacity:0.8;stroke:#1f77b4;stroke-opacity:0.8;" x="192.288785" xlink:href="#m56223fa081" y="47.962165"/>
     <use style="fill:#1f77b4;fill-opacity:0.8;stroke:#1f77b4;stroke-opacity:0.8;" x="203.797813" xlink:href="#m56223fa081" y="56.124371"/>
     <use style="fill:#1f77b4;fill-opacity:0.8;stroke:#1f77b4;stroke-opacity:0.8;" x="202.527673" xlink:href="#m56223fa081" y="74.191863"/>
     <use style="fill:#1f77b4;fill-opacity:0.8;stroke:#1f77b4;stroke-opacity:0.8;" x="167.760887" xlink:href="#m56223fa081" y="67.250086"/>
     <use style="fill:#1f77b4;fill-opacity:0.8;stroke:#1f77b4;stroke-opacity:0.8;" x="199.859613" xlink:href="#m56223fa081" y="42.491506"/>
     <use style="fill:#1f77b4;fill-opacity:0.8;stroke:#1f77b4;stroke-opacity:0.8;" x="167.760887" xlink:href="#m56223fa081" y="97.967886"/>
     <use style="fill:#1f77b4;fill-opacity:0.8;stroke:#1f77b4;stroke-opacity:0.8;" x="157.264725" xlink:href="#m56223fa081" y="99.039438"/>
     <use style="fill:#1f77b4;fill-opacity:0.8;stroke:#1f77b4;stroke-opacity:0.8;" x="173.485789" xlink:href="#m56223fa081" y="64.987923"/>
     <use style="fill:#1f77b4;fill-opacity:0.8;stroke:#1f77b4;stroke-opacity:0.8;" x="180.779757" xlink:href="#m56223fa081" y="51.186741"/>
     <use style="fill:#1f77b4;fill-opacity:0.8;stroke:#1f77b4;stroke-opacity:0.8;" x="170.725655" xlink:href="#m56223fa081" y="72.008284"/>
     <use style="fill:#1f77b4;fill-opacity:0.8;stroke:#1f77b4;stroke-opacity:0.8;" x="148.337629" xlink:href="#m56223fa081" y="44.334518"/>
     <use style="fill:#1f77b4;fill-opacity:0.8;stroke:#1f77b4;stroke-opacity:0.8;" x="153.049665" xlink:href="#m56223fa081" y="71.179107"/>
     <use style="fill:#1f77b4;fill-opacity:0.8;stroke:#1f77b4;stroke-opacity:0.8;" x="193.921913" xlink:href="#m56223fa081" y="56.709685"/>
     <use style="fill:#1f77b4;fill-opacity:0.8;stroke:#1f77b4;stroke-opacity:0.8;" x="65.147352" xlink:href="#m56223fa081" y="24.745223"/>
     <use style="fill:#1f77b4;fill-opacity:0.8;stroke:#1f77b4;stroke-opacity:0.8;" x="157.264725" xlink:href="#m56223fa081" y="72.630166"/>
     <use style="fill:#1f77b4;fill-opacity:0.8;stroke:#1f77b4;stroke-opacity:0.8;" x="136.828601" xlink:href="#m56223fa081" y="24.745223"/>
     <use style="fill:#1f77b4;fill-opacity:0.8;stroke:#1f77b4;stroke-opacity:0.8;" x="109.098509" xlink:href="#m56223fa081" y="117.612991"/>
     <use style="fill:#1f77b4;fill-opacity:0.8;stroke:#1f77b4;stroke-opacity:0.8;" x="129.534632" xlink:href="#m56223fa081" y="129.221462"/>
     <use style="fill:#1f77b4;fill-opacity:0.8;stroke:#1f77b4;stroke-opacity:0.8;" x="109.098509" xlink:href="#m56223fa081" y="71.179107"/>
     <use style="fill:#1f77b4;fill-opacity:0.8;stroke:#1f77b4;stroke-opacity:0.8;" x="109.098509" xlink:href="#m56223fa081" y="71.179107"/>
     <use style="fill:#1f77b4;fill-opacity:0.8;stroke:#1f77b4;stroke-opacity:0.8;" x="129.534632" xlink:href="#m56223fa081" y="52.605554"/>
     <use style="fill:#1f77b4;fill-opacity:0.8;stroke:#1f77b4;stroke-opacity:0.8;" x="120.607537" xlink:href="#m56223fa081" y="59.570636"/>
     <use style="fill:#1f77b4;fill-opacity:0.8;stroke:#1f77b4;stroke-opacity:0.8;" x="153.049665" xlink:href="#m56223fa081" y="100.376171"/>
     <use style="fill:#1f77b4;fill-opacity:0.8;stroke:#1f77b4;stroke-opacity:0.8;" x="167.760887" xlink:href="#m56223fa081" y="55.552319"/>
     <use style="fill:#1f77b4;fill-opacity:0.8;stroke:#1f77b4;stroke-opacity:0.8;" x="120.607537" xlink:href="#m56223fa081" y="85.689696"/>
     <use style="fill:#1f77b4;fill-opacity:0.8;stroke:#1f77b4;stroke-opacity:0.8;" x="120.607537" xlink:href="#m56223fa081" y="108.326214"/>
     <use style="fill:#1f77b4;fill-opacity:0.8;stroke:#1f77b4;stroke-opacity:0.8;" x="164.558693" xlink:href="#m56223fa081" y="59.847028"/>
     <use style="fill:#1f77b4;fill-opacity:0.8;stroke:#1f77b4;stroke-opacity:0.8;" x="153.049665" xlink:href="#m56223fa081" y="144.699423"/>
     <use style="fill:#1f77b4;fill-opacity:0.8;stroke:#1f77b4;stroke-opacity:0.8;" x="109.098509" xlink:href="#m56223fa081" y="117.612991"/>
     <use style="fill:#1f77b4;fill-opacity:0.8;stroke:#1f77b4;stroke-opacity:0.8;" x="65.147352" xlink:href="#m56223fa081" y="94.396049"/>
     <use style="fill:#1f77b4;fill-opacity:0.8;stroke:#1f77b4;stroke-opacity:0.8;" x="120.607537" xlink:href="#m56223fa081" y="33.451577"/>
     <use style="fill:#1f77b4;fill-opacity:0.8;stroke:#1f77b4;stroke-opacity:0.8;" x="120.607537" xlink:href="#m56223fa081" y="42.15793"/>
     <use style="fill:#1f77b4;fill-opacity:0.8;stroke:#1f77b4;stroke-opacity:0.8;" x="65.147352" xlink:href="#m56223fa081" y="24.745223"/>
     <use style="fill:#1f77b4;fill-opacity:0.8;stroke:#1f77b4;stroke-opacity:0.8;" x="92.877444" xlink:href="#m56223fa081" y="24.745223"/>
     <use style="fill:#1f77b4;fill-opacity:0.8;stroke:#1f77b4;stroke-opacity:0.8;" x="92.877444" xlink:href="#m56223fa081" y="94.396049"/>
     <use style="fill:#1f77b4;fill-opacity:0.8;stroke:#1f77b4;stroke-opacity:0.8;" x="92.877444" xlink:href="#m56223fa081" y="129.221462"/>
     <use style="fill:#1f77b4;fill-opacity:0.8;stroke:#1f77b4;stroke-opacity:0.8;" x="92.877444" xlink:href="#m56223fa081" y="164.046875"/>
     <use style="fill:#1f77b4;fill-opacity:0.8;stroke:#1f77b4;stroke-opacity:0.8;" x="109.098509" xlink:href="#m56223fa081" y="71.179107"/>
     <use style="fill:#1f77b4;fill-opacity:0.8;stroke:#1f77b4;stroke-opacity:0.8;" x="129.534632" xlink:href="#m56223fa081" y="108.326214"/>
     <use style="fill:#1f77b4;fill-opacity:0.8;stroke:#1f77b4;stroke-opacity:0.8;" x="92.877444" xlink:href="#m56223fa081" y="233.697701"/>
     <use style="fill:#1f77b4;fill-opacity:0.8;stroke:#1f77b4;stroke-opacity:0.8;" x="161.07771" xlink:href="#m56223fa081" y="94.396049"/>
     <use style="fill:#1f77b4;fill-opacity:0.8;stroke:#1f77b4;stroke-opacity:0.8;" x="161.07771" xlink:href="#m56223fa081" y="59.916012"/>
     <use style="fill:#1f77b4;fill-opacity:0.8;stroke:#1f77b4;stroke-opacity:0.8;" x="120.607537" xlink:href="#m56223fa081" y="59.570636"/>
     <use style="fill:#1f77b4;fill-opacity:0.8;stroke:#1f77b4;stroke-opacity:0.8;" x="142.995563" xlink:href="#m56223fa081" y="116.783815"/>
     <use style="fill:#1f77b4;fill-opacity:0.8;stroke:#1f77b4;stroke-opacity:0.8;" x="109.098509" xlink:href="#m56223fa081" y="47.962165"/>
     <use style="fill:#1f77b4;fill-opacity:0.8;stroke:#1f77b4;stroke-opacity:0.8;" x="109.098509" xlink:href="#m56223fa081" y="102.13503"/>
     <use style="fill:#1f77b4;fill-opacity:0.8;stroke:#1f77b4;stroke-opacity:0.8;" x="129.534632" xlink:href="#m56223fa081" y="108.326214"/>
     <use style="fill:#1f77b4;fill-opacity:0.8;stroke:#1f77b4;stroke-opacity:0.8;" x="92.877444" xlink:href="#m56223fa081" y="59.570636"/>
     <use style="fill:#1f77b4;fill-opacity:0.8;stroke:#1f77b4;stroke-opacity:0.8;" x="92.877444" xlink:href="#m56223fa081" y="59.570636"/>
     <use style="fill:#1f77b4;fill-opacity:0.8;stroke:#1f77b4;stroke-opacity:0.8;" x="65.147352" xlink:href="#m56223fa081" y="24.745223"/>
     <use style="fill:#1f77b4;fill-opacity:0.8;stroke:#1f77b4;stroke-opacity:0.8;" x="65.147352" xlink:href="#m56223fa081" y="24.745223"/>
     <use style="fill:#1f77b4;fill-opacity:0.8;stroke:#1f77b4;stroke-opacity:0.8;" x="65.147352" xlink:href="#m56223fa081" y="24.745223"/>
     <use style="fill:#1f77b4;fill-opacity:0.8;stroke:#1f77b4;stroke-opacity:0.8;" x="92.877444" xlink:href="#m56223fa081" y="59.570636"/>
     <use style="fill:#1f77b4;fill-opacity:0.8;stroke:#1f77b4;stroke-opacity:0.8;" x="92.877444" xlink:href="#m56223fa081" y="59.570636"/>
     <use style="fill:#1f77b4;fill-opacity:0.8;stroke:#1f77b4;stroke-opacity:0.8;" x="109.098509" xlink:href="#m56223fa081" y="94.396049"/>
     <use style="fill:#1f77b4;fill-opacity:0.8;stroke:#1f77b4;stroke-opacity:0.8;" x="92.877444" xlink:href="#m56223fa081" y="94.396049"/>
     <use style="fill:#1f77b4;fill-opacity:0.8;stroke:#1f77b4;stroke-opacity:0.8;" x="65.147352" xlink:href="#m56223fa081" y="233.697701"/>
     <use style="fill:#1f77b4;fill-opacity:0.8;stroke:#1f77b4;stroke-opacity:0.8;" x="109.098509" xlink:href="#m56223fa081" y="24.745223"/>
     <use style="fill:#1f77b4;fill-opacity:0.8;stroke:#1f77b4;stroke-opacity:0.8;" x="92.877444" xlink:href="#m56223fa081" y="59.570636"/>
     <use style="fill:#1f77b4;fill-opacity:0.8;stroke:#1f77b4;stroke-opacity:0.8;" x="142.995563" xlink:href="#m56223fa081" y="156.010241"/>
     <use style="fill:#1f77b4;fill-opacity:0.8;stroke:#1f77b4;stroke-opacity:0.8;" x="109.098509" xlink:href="#m56223fa081" y="71.179107"/>
     <use style="fill:#1f77b4;fill-opacity:0.8;stroke:#1f77b4;stroke-opacity:0.8;" x="65.147352" xlink:href="#m56223fa081" y="233.697701"/>
     <use style="fill:#1f77b4;fill-opacity:0.8;stroke:#1f77b4;stroke-opacity:0.8;" x="65.147352" xlink:href="#m56223fa081" y="24.745223"/>
     <use style="fill:#1f77b4;fill-opacity:0.8;stroke:#1f77b4;stroke-opacity:0.8;" x="65.147352" xlink:href="#m56223fa081" y="24.745223"/>
     <use style="fill:#1f77b4;fill-opacity:0.8;stroke:#1f77b4;stroke-opacity:0.8;" x="65.147352" xlink:href="#m56223fa081" y="24.745223"/>
     <use style="fill:#1f77b4;fill-opacity:0.8;stroke:#1f77b4;stroke-opacity:0.8;" x="92.877444" xlink:href="#m56223fa081" y="24.745223"/>
     <use style="fill:#1f77b4;fill-opacity:0.8;stroke:#1f77b4;stroke-opacity:0.8;" x="129.534632" xlink:href="#m56223fa081" y="46.801318"/>
     <use style="fill:#1f77b4;fill-opacity:0.8;stroke:#1f77b4;stroke-opacity:0.8;" x="65.147352" xlink:href="#m56223fa081" y="42.15793"/>
     <use style="fill:#1f77b4;fill-opacity:0.8;stroke:#1f77b4;stroke-opacity:0.8;" x="65.147352" xlink:href="#m56223fa081" y="233.697701"/>
     <use style="fill:#1f77b4;fill-opacity:0.8;stroke:#1f77b4;stroke-opacity:0.8;" x="65.147352" xlink:href="#m56223fa081" y="24.745223"/>
     <use style="fill:#1f77b4;fill-opacity:0.8;stroke:#1f77b4;stroke-opacity:0.8;" x="65.147352" xlink:href="#m56223fa081" y="303.348527"/>
     <use style="fill:#1f77b4;fill-opacity:0.8;stroke:#1f77b4;stroke-opacity:0.8;" x="65.147352" xlink:href="#m56223fa081" y="59.570636"/>
     <use style="fill:#1f77b4;fill-opacity:0.8;stroke:#1f77b4;stroke-opacity:0.8;" x="65.147352" xlink:href="#m56223fa081" y="24.745223"/>
     <use style="fill:#1f77b4;fill-opacity:0.8;stroke:#1f77b4;stroke-opacity:0.8;" x="92.877444" xlink:href="#m56223fa081" y="146.634169"/>
     <use style="fill:#1f77b4;fill-opacity:0.8;stroke:#1f77b4;stroke-opacity:0.8;" x="65.147352" xlink:href="#m56223fa081" y="24.745223"/>
     <use style="fill:#1f77b4;fill-opacity:0.8;stroke:#1f77b4;stroke-opacity:0.8;" x="120.607537" xlink:href="#m56223fa081" y="94.396049"/>
     <use style="fill:#1f77b4;fill-opacity:0.8;stroke:#1f77b4;stroke-opacity:0.8;" x="120.607537" xlink:href="#m56223fa081" y="42.15793"/>
     <use style="fill:#1f77b4;fill-opacity:0.8;stroke:#1f77b4;stroke-opacity:0.8;" x="65.147352" xlink:href="#m56223fa081" y="24.745223"/>
     <use style="fill:#1f77b4;fill-opacity:0.8;stroke:#1f77b4;stroke-opacity:0.8;" x="92.877444" xlink:href="#m56223fa081" y="24.745223"/>
     <use style="fill:#1f77b4;fill-opacity:0.8;stroke:#1f77b4;stroke-opacity:0.8;" x="109.098509" xlink:href="#m56223fa081" y="111.808756"/>
     <use style="fill:#1f77b4;fill-opacity:0.8;stroke:#1f77b4;stroke-opacity:0.8;" x="65.147352" xlink:href="#m56223fa081" y="24.745223"/>
     <use style="fill:#1f77b4;fill-opacity:0.8;stroke:#1f77b4;stroke-opacity:0.8;" x="65.147352" xlink:href="#m56223fa081" y="24.745223"/>
     <use style="fill:#1f77b4;fill-opacity:0.8;stroke:#1f77b4;stroke-opacity:0.8;" x="65.147352" xlink:href="#m56223fa081" y="94.396049"/>
     <use style="fill:#1f77b4;fill-opacity:0.8;stroke:#1f77b4;stroke-opacity:0.8;" x="65.147352" xlink:href="#m56223fa081" y="24.745223"/>
     <use style="fill:#1f77b4;fill-opacity:0.8;stroke:#1f77b4;stroke-opacity:0.8;" x="65.147352" xlink:href="#m56223fa081" y="24.745223"/>
     <use style="fill:#1f77b4;fill-opacity:0.8;stroke:#1f77b4;stroke-opacity:0.8;" x="109.098509" xlink:href="#m56223fa081" y="57.460005"/>
     <use style="fill:#1f77b4;fill-opacity:0.8;stroke:#1f77b4;stroke-opacity:0.8;" x="92.877444" xlink:href="#m56223fa081" y="59.570636"/>
     <use style="fill:#1f77b4;fill-opacity:0.8;stroke:#1f77b4;stroke-opacity:0.8;" x="65.147352" xlink:href="#m56223fa081" y="129.221462"/>
     <use style="fill:#1f77b4;fill-opacity:0.8;stroke:#1f77b4;stroke-opacity:0.8;" x="109.098509" xlink:href="#m56223fa081" y="91.816389"/>
     <use style="fill:#1f77b4;fill-opacity:0.8;stroke:#1f77b4;stroke-opacity:0.8;" x="92.877444" xlink:href="#m56223fa081" y="94.396049"/>
     <use style="fill:#1f77b4;fill-opacity:0.8;stroke:#1f77b4;stroke-opacity:0.8;" x="92.877444" xlink:href="#m56223fa081" y="129.221462"/>
     <use style="fill:#1f77b4;fill-opacity:0.8;stroke:#1f77b4;stroke-opacity:0.8;" x="65.147352" xlink:href="#m56223fa081" y="24.745223"/>
     <use style="fill:#1f77b4;fill-opacity:0.8;stroke:#1f77b4;stroke-opacity:0.8;" x="65.147352" xlink:href="#m56223fa081" y="164.046875"/>
     <use style="fill:#1f77b4;fill-opacity:0.8;stroke:#1f77b4;stroke-opacity:0.8;" x="65.147352" xlink:href="#m56223fa081" y="24.745223"/>
     <use style="fill:#1f77b4;fill-opacity:0.8;stroke:#1f77b4;stroke-opacity:0.8;" x="65.147352" xlink:href="#m56223fa081" y="94.396049"/>
     <use style="fill:#1f77b4;fill-opacity:0.8;stroke:#1f77b4;stroke-opacity:0.8;" x="65.147352" xlink:href="#m56223fa081" y="24.745223"/>
     <use style="fill:#1f77b4;fill-opacity:0.8;stroke:#1f77b4;stroke-opacity:0.8;" x="65.147352" xlink:href="#m56223fa081" y="52.605554"/>
     <use style="fill:#1f77b4;fill-opacity:0.8;stroke:#1f77b4;stroke-opacity:0.8;" x="65.147352" xlink:href="#m56223fa081" y="24.745223"/>
     <use style="fill:#1f77b4;fill-opacity:0.8;stroke:#1f77b4;stroke-opacity:0.8;" x="65.147352" xlink:href="#m56223fa081" y="24.745223"/>
     <use style="fill:#1f77b4;fill-opacity:0.8;stroke:#1f77b4;stroke-opacity:0.8;" x="65.147352" xlink:href="#m56223fa081" y="59.570636"/>
     <use style="fill:#1f77b4;fill-opacity:0.8;stroke:#1f77b4;stroke-opacity:0.8;" x="65.147352" xlink:href="#m56223fa081" y="303.348527"/>
     <use style="fill:#1f77b4;fill-opacity:0.8;stroke:#1f77b4;stroke-opacity:0.8;" x="65.147352" xlink:href="#m56223fa081" y="164.046875"/>
     <use style="fill:#1f77b4;fill-opacity:0.8;stroke:#1f77b4;stroke-opacity:0.8;" x="65.147352" xlink:href="#m56223fa081" y="24.745223"/>
    </g>
   </g>
   <g id="PolyCollection_1">
    <path clip-path="url(#pe8a887ced0)" d="M 48.70625 63.834888 
L 48.70625 101.818209 
L 51.722106 101.220111 
L 54.737963 100.622013 
L 57.753819 100.063862 
L 60.769675 99.453191 
L 63.785532 98.841421 
L 66.801388 98.229622 
L 69.817245 97.619296 
L 72.833101 97.002838 
L 75.848957 96.437424 
L 78.864814 95.84222 
L 81.88067 95.298933 
L 84.896526 94.905294 
L 87.912383 94.479637 
L 90.928239 93.977785 
L 93.944096 93.397396 
L 96.959952 92.812982 
L 99.975808 92.359572 
L 102.991665 91.90507 
L 106.007521 91.287905 
L 109.023377 90.65036 
L 112.039234 90.012458 
L 115.05509 89.372496 
L 118.070946 88.731219 
L 121.086803 88.195548 
L 124.102659 87.818842 
L 127.118516 87.212314 
L 130.134372 86.694172 
L 133.150228 86.082838 
L 136.166085 85.5218 
L 139.181941 85.032654 
L 142.197797 84.651781 
L 145.213654 84.239055 
L 148.22951 83.727702 
L 151.245367 83.248691 
L 154.261223 82.863333 
L 157.277079 82.432841 
L 160.292936 81.873004 
L 163.308792 81.200134 
L 166.324648 80.643852 
L 169.340505 80.244799 
L 172.356361 79.939221 
L 175.372217 79.409017 
L 178.388074 79.07863 
L 181.40393 78.680808 
L 184.419787 78.434414 
L 187.435643 78.119988 
L 190.451499 77.814984 
L 193.467356 77.779136 
L 196.483212 77.509912 
L 199.499068 77.249834 
L 202.514925 77.16844 
L 205.530781 77.098417 
L 208.546637 77.060776 
L 211.562494 77.007924 
L 214.57835 76.787812 
L 217.594207 76.746137 
L 220.610063 76.816506 
L 223.625919 76.89232 
L 226.641776 76.924826 
L 229.657632 76.972993 
L 232.673488 77.080357 
L 235.689345 77.081983 
L 238.705201 77.255996 
L 241.721058 77.278 
L 244.736914 77.298076 
L 247.75277 77.46885 
L 250.768627 77.499787 
L 253.784483 77.675731 
L 256.800339 77.864446 
L 259.816196 78.049494 
L 262.832052 78.085781 
L 265.847908 78.13824 
L 268.863765 78.155675 
L 271.879621 78.171324 
L 274.895478 78.308085 
L 277.911334 78.457472 
L 280.92719 78.590298 
L 283.943047 78.592795 
L 286.958903 78.76298 
L 289.974759 78.985243 
L 292.990616 79.123222 
L 296.006472 79.205919 
L 299.022329 79.288323 
L 302.038185 79.370726 
L 305.054041 79.45313 
L 308.069898 79.557098 
L 311.085754 79.717606 
L 314.10161 79.878113 
L 317.117467 80.03862 
L 320.133323 80.197701 
L 323.149179 80.355567 
L 326.165036 80.513433 
L 329.180892 80.671299 
L 332.196749 80.824419 
L 335.212605 80.99387 
L 338.228461 81.156291 
L 341.244318 81.318713 
L 344.260174 81.495713 
L 347.27603 81.710541 
L 347.27603 43.952306 
L 347.27603 43.952306 
L 344.260174 44.52046 
L 341.244318 45.088831 
L 338.228461 45.657202 
L 335.212605 46.143999 
L 332.196749 46.621879 
L 329.180892 47.09976 
L 326.165036 47.577641 
L 323.149179 48.055522 
L 320.133323 48.575106 
L 317.117467 49.111805 
L 314.10161 49.649209 
L 311.085754 50.189533 
L 308.069898 50.812441 
L 305.054041 51.489023 
L 302.038185 52.141873 
L 299.022329 52.674675 
L 296.006472 53.207478 
L 292.990616 53.74028 
L 289.974759 54.287455 
L 286.958903 54.813236 
L 283.943047 55.339018 
L 280.92719 55.864799 
L 277.911334 56.393239 
L 274.895478 56.98242 
L 271.879621 57.578502 
L 268.863765 58.174583 
L 265.847908 58.770665 
L 262.832052 59.366747 
L 259.816196 59.965599 
L 256.800339 60.527535 
L 253.784483 61.027738 
L 250.768627 61.689166 
L 247.75277 62.097671 
L 244.736914 62.506508 
L 241.721058 63.117153 
L 238.705201 63.51331 
L 235.689345 63.975712 
L 232.673488 64.350581 
L 229.657632 64.985768 
L 226.641776 65.5217 
L 223.625919 65.851871 
L 220.610063 66.36348 
L 217.594207 66.876129 
L 214.57835 67.289884 
L 211.562494 67.70023 
L 208.546637 68.061528 
L 205.530781 68.360807 
L 202.514925 68.476992 
L 199.499068 68.577315 
L 196.483212 68.787612 
L 193.467356 68.908844 
L 190.451499 69.148268 
L 187.435643 69.227259 
L 184.419787 69.284444 
L 181.40393 69.308647 
L 178.388074 69.274979 
L 175.372217 69.304241 
L 172.356361 69.293399 
L 169.340505 69.256563 
L 166.324648 69.24644 
L 163.308792 69.087779 
L 160.292936 69.021726 
L 157.277079 68.891335 
L 154.261223 68.869689 
L 151.245367 68.857277 
L 148.22951 68.748731 
L 145.213654 68.597412 
L 142.197797 68.444046 
L 139.181941 68.337463 
L 136.166085 68.268588 
L 133.150228 68.102632 
L 130.134372 68.008518 
L 127.118516 67.836055 
L 124.102659 67.574011 
L 121.086803 67.567792 
L 118.070946 67.549009 
L 115.05509 67.374245 
L 112.039234 67.248702 
L 109.023377 67.098122 
L 106.007521 66.946306 
L 102.991665 66.796864 
L 99.975808 66.647422 
L 96.959952 66.49798 
L 93.944096 66.348538 
L 90.928239 66.199096 
L 87.912383 66.051128 
L 84.896526 65.903359 
L 81.88067 65.75559 
L 78.864814 65.60782 
L 75.848957 65.459131 
L 72.833101 65.291894 
L 69.817245 65.038268 
L 66.801388 64.825262 
L 63.785532 64.613883 
L 60.769675 64.400158 
L 57.753819 64.233472 
L 54.737963 64.100554 
L 51.722106 63.96889 
L 48.70625 63.834888 
z
" style="fill:#1f77b4;fill-opacity:0.15;"/>
   </g>
   <g id="matplotlib.axis_1">
    <g id="xtick_1">
     <g id="line2d_1">
      <defs>
       <path d="M 0 0 
L 0 3.5 
" id="md423b7adf7" style="stroke:#000000;stroke-width:0.8;"/>
      </defs>
      <g>
       <use style="stroke:#000000;stroke-width:0.8;" x="65.147352" xlink:href="#md423b7adf7" y="317.29375"/>
      </g>
     </g>
     <g id="text_1">
      <!-- 0.0 -->
      <defs>
       <path d="M 31.78125 66.40625 
Q 24.171875 66.40625 20.328125 58.90625 
Q 16.5 51.421875 16.5 36.375 
Q 16.5 21.390625 20.328125 13.890625 
Q 24.171875 6.390625 31.78125 6.390625 
Q 39.453125 6.390625 43.28125 13.890625 
Q 47.125 21.390625 47.125 36.375 
Q 47.125 51.421875 43.28125 58.90625 
Q 39.453125 66.40625 31.78125 66.40625 
z
M 31.78125 74.21875 
Q 44.046875 74.21875 50.515625 64.515625 
Q 56.984375 54.828125 56.984375 36.375 
Q 56.984375 17.96875 50.515625 8.265625 
Q 44.046875 -1.421875 31.78125 -1.421875 
Q 19.53125 -1.421875 13.0625 8.265625 
Q 6.59375 17.96875 6.59375 36.375 
Q 6.59375 54.828125 13.0625 64.515625 
Q 19.53125 74.21875 31.78125 74.21875 
z
" id="DejaVuSans-48"/>
       <path d="M 10.6875 12.40625 
L 21 12.40625 
L 21 0 
L 10.6875 0 
z
" id="DejaVuSans-46"/>
      </defs>
      <g transform="translate(57.19579 331.892187)scale(0.1 -0.1)">
       <use xlink:href="#DejaVuSans-48"/>
       <use x="63.623047" xlink:href="#DejaVuSans-46"/>
       <use x="95.410156" xlink:href="#DejaVuSans-48"/>
      </g>
     </g>
    </g>
    <g id="xtick_2">
     <g id="line2d_2">
      <g>
       <use style="stroke:#000000;stroke-width:0.8;" x="111.206038" xlink:href="#md423b7adf7" y="317.29375"/>
      </g>
     </g>
     <g id="text_2">
      <!-- 0.5 -->
      <defs>
       <path d="M 10.796875 72.90625 
L 49.515625 72.90625 
L 49.515625 64.59375 
L 19.828125 64.59375 
L 19.828125 46.734375 
Q 21.96875 47.46875 24.109375 47.828125 
Q 26.265625 48.1875 28.421875 48.1875 
Q 40.625 48.1875 47.75 41.5 
Q 54.890625 34.8125 54.890625 23.390625 
Q 54.890625 11.625 47.5625 5.09375 
Q 40.234375 -1.421875 26.90625 -1.421875 
Q 22.3125 -1.421875 17.546875 -0.640625 
Q 12.796875 0.140625 7.71875 1.703125 
L 7.71875 11.625 
Q 12.109375 9.234375 16.796875 8.0625 
Q 21.484375 6.890625 26.703125 6.890625 
Q 35.15625 6.890625 40.078125 11.328125 
Q 45.015625 15.765625 45.015625 23.390625 
Q 45.015625 31 40.078125 35.4375 
Q 35.15625 39.890625 26.703125 39.890625 
Q 22.75 39.890625 18.8125 39.015625 
Q 14.890625 38.140625 10.796875 36.28125 
z
" id="DejaVuSans-53"/>
      </defs>
      <g transform="translate(103.254476 331.892187)scale(0.1 -0.1)">
       <use xlink:href="#DejaVuSans-48"/>
       <use x="63.623047" xlink:href="#DejaVuSans-46"/>
       <use x="95.410156" xlink:href="#DejaVuSans-53"/>
      </g>
     </g>
    </g>
    <g id="xtick_3">
     <g id="line2d_3">
      <g>
       <use style="stroke:#000000;stroke-width:0.8;" x="157.264725" xlink:href="#md423b7adf7" y="317.29375"/>
      </g>
     </g>
     <g id="text_3">
      <!-- 1.0 -->
      <defs>
       <path d="M 12.40625 8.296875 
L 28.515625 8.296875 
L 28.515625 63.921875 
L 10.984375 60.40625 
L 10.984375 69.390625 
L 28.421875 72.90625 
L 38.28125 72.90625 
L 38.28125 8.296875 
L 54.390625 8.296875 
L 54.390625 0 
L 12.40625 0 
z
" id="DejaVuSans-49"/>
      </defs>
      <g transform="translate(149.313162 331.892187)scale(0.1 -0.1)">
       <use xlink:href="#DejaVuSans-49"/>
       <use x="63.623047" xlink:href="#DejaVuSans-46"/>
       <use x="95.410156" xlink:href="#DejaVuSans-48"/>
      </g>
     </g>
    </g>
    <g id="xtick_4">
     <g id="line2d_4">
      <g>
       <use style="stroke:#000000;stroke-width:0.8;" x="203.323411" xlink:href="#md423b7adf7" y="317.29375"/>
      </g>
     </g>
     <g id="text_4">
      <!-- 1.5 -->
      <g transform="translate(195.371848 331.892187)scale(0.1 -0.1)">
       <use xlink:href="#DejaVuSans-49"/>
       <use x="63.623047" xlink:href="#DejaVuSans-46"/>
       <use x="95.410156" xlink:href="#DejaVuSans-53"/>
      </g>
     </g>
    </g>
    <g id="xtick_5">
     <g id="line2d_5">
      <g>
       <use style="stroke:#000000;stroke-width:0.8;" x="249.382097" xlink:href="#md423b7adf7" y="317.29375"/>
      </g>
     </g>
     <g id="text_5">
      <!-- 2.0 -->
      <defs>
       <path d="M 19.1875 8.296875 
L 53.609375 8.296875 
L 53.609375 0 
L 7.328125 0 
L 7.328125 8.296875 
Q 12.9375 14.109375 22.625 23.890625 
Q 32.328125 33.6875 34.8125 36.53125 
Q 39.546875 41.84375 41.421875 45.53125 
Q 43.3125 49.21875 43.3125 52.78125 
Q 43.3125 58.59375 39.234375 62.25 
Q 35.15625 65.921875 28.609375 65.921875 
Q 23.96875 65.921875 18.8125 64.3125 
Q 13.671875 62.703125 7.8125 59.421875 
L 7.8125 69.390625 
Q 13.765625 71.78125 18.9375 73 
Q 24.125 74.21875 28.421875 74.21875 
Q 39.75 74.21875 46.484375 68.546875 
Q 53.21875 62.890625 53.21875 53.421875 
Q 53.21875 48.921875 51.53125 44.890625 
Q 49.859375 40.875 45.40625 35.40625 
Q 44.1875 33.984375 37.640625 27.21875 
Q 31.109375 20.453125 19.1875 8.296875 
z
" id="DejaVuSans-50"/>
      </defs>
      <g transform="translate(241.430535 331.892187)scale(0.1 -0.1)">
       <use xlink:href="#DejaVuSans-50"/>
       <use x="63.623047" xlink:href="#DejaVuSans-46"/>
       <use x="95.410156" xlink:href="#DejaVuSans-48"/>
      </g>
     </g>
    </g>
    <g id="xtick_6">
     <g id="line2d_6">
      <g>
       <use style="stroke:#000000;stroke-width:0.8;" x="295.440784" xlink:href="#md423b7adf7" y="317.29375"/>
      </g>
     </g>
     <g id="text_6">
      <!-- 2.5 -->
      <g transform="translate(287.489221 331.892187)scale(0.1 -0.1)">
       <use xlink:href="#DejaVuSans-50"/>
       <use x="63.623047" xlink:href="#DejaVuSans-46"/>
       <use x="95.410156" xlink:href="#DejaVuSans-53"/>
      </g>
     </g>
    </g>
    <g id="xtick_7">
     <g id="line2d_7">
      <g>
       <use style="stroke:#000000;stroke-width:0.8;" x="341.49947" xlink:href="#md423b7adf7" y="317.29375"/>
      </g>
     </g>
     <g id="text_7">
      <!-- 3.0 -->
      <defs>
       <path d="M 40.578125 39.3125 
Q 47.65625 37.796875 51.625 33 
Q 55.609375 28.21875 55.609375 21.1875 
Q 55.609375 10.40625 48.1875 4.484375 
Q 40.765625 -1.421875 27.09375 -1.421875 
Q 22.515625 -1.421875 17.65625 -0.515625 
Q 12.796875 0.390625 7.625 2.203125 
L 7.625 11.71875 
Q 11.71875 9.328125 16.59375 8.109375 
Q 21.484375 6.890625 26.8125 6.890625 
Q 36.078125 6.890625 40.9375 10.546875 
Q 45.796875 14.203125 45.796875 21.1875 
Q 45.796875 27.640625 41.28125 31.265625 
Q 36.765625 34.90625 28.71875 34.90625 
L 20.21875 34.90625 
L 20.21875 43.015625 
L 29.109375 43.015625 
Q 36.375 43.015625 40.234375 45.921875 
Q 44.09375 48.828125 44.09375 54.296875 
Q 44.09375 59.90625 40.109375 62.90625 
Q 36.140625 65.921875 28.71875 65.921875 
Q 24.65625 65.921875 20.015625 65.03125 
Q 15.375 64.15625 9.8125 62.3125 
L 9.8125 71.09375 
Q 15.4375 72.65625 20.34375 73.4375 
Q 25.25 74.21875 29.59375 74.21875 
Q 40.828125 74.21875 47.359375 69.109375 
Q 53.90625 64.015625 53.90625 55.328125 
Q 53.90625 49.265625 50.4375 45.09375 
Q 46.96875 40.921875 40.578125 39.3125 
z
" id="DejaVuSans-51"/>
      </defs>
      <g transform="translate(333.547907 331.892187)scale(0.1 -0.1)">
       <use xlink:href="#DejaVuSans-51"/>
       <use x="63.623047" xlink:href="#DejaVuSans-46"/>
       <use x="95.410156" xlink:href="#DejaVuSans-48"/>
      </g>
     </g>
    </g>
    <g id="text_8">
     <!-- log10_num_ratings -->
     <defs>
      <path d="M 9.421875 75.984375 
L 18.40625 75.984375 
L 18.40625 0 
L 9.421875 0 
z
" id="DejaVuSans-108"/>
      <path d="M 30.609375 48.390625 
Q 23.390625 48.390625 19.1875 42.75 
Q 14.984375 37.109375 14.984375 27.296875 
Q 14.984375 17.484375 19.15625 11.84375 
Q 23.34375 6.203125 30.609375 6.203125 
Q 37.796875 6.203125 41.984375 11.859375 
Q 46.1875 17.53125 46.1875 27.296875 
Q 46.1875 37.015625 41.984375 42.703125 
Q 37.796875 48.390625 30.609375 48.390625 
z
M 30.609375 56 
Q 42.328125 56 49.015625 48.375 
Q 55.71875 40.765625 55.71875 27.296875 
Q 55.71875 13.875 49.015625 6.21875 
Q 42.328125 -1.421875 30.609375 -1.421875 
Q 18.84375 -1.421875 12.171875 6.21875 
Q 5.515625 13.875 5.515625 27.296875 
Q 5.515625 40.765625 12.171875 48.375 
Q 18.84375 56 30.609375 56 
z
" id="DejaVuSans-111"/>
      <path d="M 45.40625 27.984375 
Q 45.40625 37.75 41.375 43.109375 
Q 37.359375 48.484375 30.078125 48.484375 
Q 22.859375 48.484375 18.828125 43.109375 
Q 14.796875 37.75 14.796875 27.984375 
Q 14.796875 18.265625 18.828125 12.890625 
Q 22.859375 7.515625 30.078125 7.515625 
Q 37.359375 7.515625 41.375 12.890625 
Q 45.40625 18.265625 45.40625 27.984375 
z
M 54.390625 6.78125 
Q 54.390625 -7.171875 48.1875 -13.984375 
Q 42 -20.796875 29.203125 -20.796875 
Q 24.46875 -20.796875 20.265625 -20.09375 
Q 16.0625 -19.390625 12.109375 -17.921875 
L 12.109375 -9.1875 
Q 16.0625 -11.328125 19.921875 -12.34375 
Q 23.78125 -13.375 27.78125 -13.375 
Q 36.625 -13.375 41.015625 -8.765625 
Q 45.40625 -4.15625 45.40625 5.171875 
L 45.40625 9.625 
Q 42.625 4.78125 38.28125 2.390625 
Q 33.9375 0 27.875 0 
Q 17.828125 0 11.671875 7.65625 
Q 5.515625 15.328125 5.515625 27.984375 
Q 5.515625 40.671875 11.671875 48.328125 
Q 17.828125 56 27.875 56 
Q 33.9375 56 38.28125 53.609375 
Q 42.625 51.21875 45.40625 46.390625 
L 45.40625 54.6875 
L 54.390625 54.6875 
z
" id="DejaVuSans-103"/>
      <path d="M 50.984375 -16.609375 
L 50.984375 -23.578125 
L -0.984375 -23.578125 
L -0.984375 -16.609375 
z
" id="DejaVuSans-95"/>
      <path d="M 54.890625 33.015625 
L 54.890625 0 
L 45.90625 0 
L 45.90625 32.71875 
Q 45.90625 40.484375 42.875 44.328125 
Q 39.84375 48.1875 33.796875 48.1875 
Q 26.515625 48.1875 22.3125 43.546875 
Q 18.109375 38.921875 18.109375 30.90625 
L 18.109375 0 
L 9.078125 0 
L 9.078125 54.6875 
L 18.109375 54.6875 
L 18.109375 46.1875 
Q 21.34375 51.125 25.703125 53.5625 
Q 30.078125 56 35.796875 56 
Q 45.21875 56 50.046875 50.171875 
Q 54.890625 44.34375 54.890625 33.015625 
z
" id="DejaVuSans-110"/>
      <path d="M 8.5 21.578125 
L 8.5 54.6875 
L 17.484375 54.6875 
L 17.484375 21.921875 
Q 17.484375 14.15625 20.5 10.265625 
Q 23.53125 6.390625 29.59375 6.390625 
Q 36.859375 6.390625 41.078125 11.03125 
Q 45.3125 15.671875 45.3125 23.6875 
L 45.3125 54.6875 
L 54.296875 54.6875 
L 54.296875 0 
L 45.3125 0 
L 45.3125 8.40625 
Q 42.046875 3.421875 37.71875 1 
Q 33.40625 -1.421875 27.6875 -1.421875 
Q 18.265625 -1.421875 13.375 4.4375 
Q 8.5 10.296875 8.5 21.578125 
z
M 31.109375 56 
z
" id="DejaVuSans-117"/>
      <path d="M 52 44.1875 
Q 55.375 50.25 60.0625 53.125 
Q 64.75 56 71.09375 56 
Q 79.640625 56 84.28125 50.015625 
Q 88.921875 44.046875 88.921875 33.015625 
L 88.921875 0 
L 79.890625 0 
L 79.890625 32.71875 
Q 79.890625 40.578125 77.09375 44.375 
Q 74.3125 48.1875 68.609375 48.1875 
Q 61.625 48.1875 57.5625 43.546875 
Q 53.515625 38.921875 53.515625 30.90625 
L 53.515625 0 
L 44.484375 0 
L 44.484375 32.71875 
Q 44.484375 40.625 41.703125 44.40625 
Q 38.921875 48.1875 33.109375 48.1875 
Q 26.21875 48.1875 22.15625 43.53125 
Q 18.109375 38.875 18.109375 30.90625 
L 18.109375 0 
L 9.078125 0 
L 9.078125 54.6875 
L 18.109375 54.6875 
L 18.109375 46.1875 
Q 21.1875 51.21875 25.484375 53.609375 
Q 29.78125 56 35.6875 56 
Q 41.65625 56 45.828125 52.96875 
Q 50 49.953125 52 44.1875 
z
" id="DejaVuSans-109"/>
      <path d="M 41.109375 46.296875 
Q 39.59375 47.171875 37.8125 47.578125 
Q 36.03125 48 33.890625 48 
Q 26.265625 48 22.1875 43.046875 
Q 18.109375 38.09375 18.109375 28.8125 
L 18.109375 0 
L 9.078125 0 
L 9.078125 54.6875 
L 18.109375 54.6875 
L 18.109375 46.1875 
Q 20.953125 51.171875 25.484375 53.578125 
Q 30.03125 56 36.53125 56 
Q 37.453125 56 38.578125 55.875 
Q 39.703125 55.765625 41.0625 55.515625 
z
" id="DejaVuSans-114"/>
      <path d="M 34.28125 27.484375 
Q 23.390625 27.484375 19.1875 25 
Q 14.984375 22.515625 14.984375 16.5 
Q 14.984375 11.71875 18.140625 8.90625 
Q 21.296875 6.109375 26.703125 6.109375 
Q 34.1875 6.109375 38.703125 11.40625 
Q 43.21875 16.703125 43.21875 25.484375 
L 43.21875 27.484375 
z
M 52.203125 31.203125 
L 52.203125 0 
L 43.21875 0 
L 43.21875 8.296875 
Q 40.140625 3.328125 35.546875 0.953125 
Q 30.953125 -1.421875 24.3125 -1.421875 
Q 15.921875 -1.421875 10.953125 3.296875 
Q 6 8.015625 6 15.921875 
Q 6 25.140625 12.171875 29.828125 
Q 18.359375 34.515625 30.609375 34.515625 
L 43.21875 34.515625 
L 43.21875 35.40625 
Q 43.21875 41.609375 39.140625 45 
Q 35.0625 48.390625 27.6875 48.390625 
Q 23 48.390625 18.546875 47.265625 
Q 14.109375 46.140625 10.015625 43.890625 
L 10.015625 52.203125 
Q 14.9375 54.109375 19.578125 55.046875 
Q 24.21875 56 28.609375 56 
Q 40.484375 56 46.34375 49.84375 
Q 52.203125 43.703125 52.203125 31.203125 
z
" id="DejaVuSans-97"/>
      <path d="M 18.3125 70.21875 
L 18.3125 54.6875 
L 36.8125 54.6875 
L 36.8125 47.703125 
L 18.3125 47.703125 
L 18.3125 18.015625 
Q 18.3125 11.328125 20.140625 9.421875 
Q 21.96875 7.515625 27.59375 7.515625 
L 36.8125 7.515625 
L 36.8125 0 
L 27.59375 0 
Q 17.1875 0 13.234375 3.875 
Q 9.28125 7.765625 9.28125 18.015625 
L 9.28125 47.703125 
L 2.6875 47.703125 
L 2.6875 54.6875 
L 9.28125 54.6875 
L 9.28125 70.21875 
z
" id="DejaVuSans-116"/>
      <path d="M 9.421875 54.6875 
L 18.40625 54.6875 
L 18.40625 0 
L 9.421875 0 
z
M 9.421875 75.984375 
L 18.40625 75.984375 
L 18.40625 64.59375 
L 9.421875 64.59375 
z
" id="DejaVuSans-105"/>
      <path d="M 44.28125 53.078125 
L 44.28125 44.578125 
Q 40.484375 46.53125 36.375 47.5 
Q 32.28125 48.484375 27.875 48.484375 
Q 21.1875 48.484375 17.84375 46.4375 
Q 14.5 44.390625 14.5 40.28125 
Q 14.5 37.15625 16.890625 35.375 
Q 19.28125 33.59375 26.515625 31.984375 
L 29.59375 31.296875 
Q 39.15625 29.25 43.1875 25.515625 
Q 47.21875 21.78125 47.21875 15.09375 
Q 47.21875 7.46875 41.1875 3.015625 
Q 35.15625 -1.421875 24.609375 -1.421875 
Q 20.21875 -1.421875 15.453125 -0.5625 
Q 10.6875 0.296875 5.421875 2 
L 5.421875 11.28125 
Q 10.40625 8.6875 15.234375 7.390625 
Q 20.0625 6.109375 24.8125 6.109375 
Q 31.15625 6.109375 34.5625 8.28125 
Q 37.984375 10.453125 37.984375 14.40625 
Q 37.984375 18.0625 35.515625 20.015625 
Q 33.0625 21.96875 24.703125 23.78125 
L 21.578125 24.515625 
Q 13.234375 26.265625 9.515625 29.90625 
Q 5.8125 33.546875 5.8125 39.890625 
Q 5.8125 47.609375 11.28125 51.796875 
Q 16.75 56 26.8125 56 
Q 31.78125 56 36.171875 55.265625 
Q 40.578125 54.546875 44.28125 53.078125 
z
" id="DejaVuSans-115"/>
     </defs>
     <g transform="translate(150.381765 345.570312)scale(0.1 -0.1)">
      <use xlink:href="#DejaVuSans-108"/>
      <use x="27.783203" xlink:href="#DejaVuSans-111"/>
      <use x="88.964844" xlink:href="#DejaVuSans-103"/>
      <use x="152.441406" xlink:href="#DejaVuSans-49"/>
      <use x="216.064453" xlink:href="#DejaVuSans-48"/>
      <use x="279.6875" xlink:href="#DejaVuSans-95"/>
      <use x="329.6875" xlink:href="#DejaVuSans-110"/>
      <use x="393.066406" xlink:href="#DejaVuSans-117"/>
      <use x="456.445312" xlink:href="#DejaVuSans-109"/>
      <use x="553.857422" xlink:href="#DejaVuSans-95"/>
      <use x="603.857422" xlink:href="#DejaVuSans-114"/>
      <use x="644.970703" xlink:href="#DejaVuSans-97"/>
      <use x="706.25" xlink:href="#DejaVuSans-116"/>
      <use x="745.458984" xlink:href="#DejaVuSans-105"/>
      <use x="773.242188" xlink:href="#DejaVuSans-110"/>
      <use x="836.621094" xlink:href="#DejaVuSans-103"/>
      <use x="900.097656" xlink:href="#DejaVuSans-115"/>
     </g>
    </g>
   </g>
   <g id="matplotlib.axis_2">
    <g id="ytick_1">
     <g id="line2d_8">
      <defs>
       <path d="M 0 0 
L -3.5 0 
" id="m289f290b84" style="stroke:#000000;stroke-width:0.8;"/>
      </defs>
      <g>
       <use style="stroke:#000000;stroke-width:0.8;" x="48.70625" xlink:href="#m289f290b84" y="303.348527"/>
      </g>
     </g>
     <g id="text_9">
      <!-- 1.0 -->
      <g transform="translate(25.803125 307.147745)scale(0.1 -0.1)">
       <use xlink:href="#DejaVuSans-49"/>
       <use x="63.623047" xlink:href="#DejaVuSans-46"/>
       <use x="95.410156" xlink:href="#DejaVuSans-48"/>
      </g>
     </g>
    </g>
    <g id="ytick_2">
     <g id="line2d_9">
      <g>
       <use style="stroke:#000000;stroke-width:0.8;" x="48.70625" xlink:href="#m289f290b84" y="268.523114"/>
      </g>
     </g>
     <g id="text_10">
      <!-- 1.5 -->
      <g transform="translate(25.803125 272.322333)scale(0.1 -0.1)">
       <use xlink:href="#DejaVuSans-49"/>
       <use x="63.623047" xlink:href="#DejaVuSans-46"/>
       <use x="95.410156" xlink:href="#DejaVuSans-53"/>
      </g>
     </g>
    </g>
    <g id="ytick_3">
     <g id="line2d_10">
      <g>
       <use style="stroke:#000000;stroke-width:0.8;" x="48.70625" xlink:href="#m289f290b84" y="233.697701"/>
      </g>
     </g>
     <g id="text_11">
      <!-- 2.0 -->
      <g transform="translate(25.803125 237.49692)scale(0.1 -0.1)">
       <use xlink:href="#DejaVuSans-50"/>
       <use x="63.623047" xlink:href="#DejaVuSans-46"/>
       <use x="95.410156" xlink:href="#DejaVuSans-48"/>
      </g>
     </g>
    </g>
    <g id="ytick_4">
     <g id="line2d_11">
      <g>
       <use style="stroke:#000000;stroke-width:0.8;" x="48.70625" xlink:href="#m289f290b84" y="198.872288"/>
      </g>
     </g>
     <g id="text_12">
      <!-- 2.5 -->
      <g transform="translate(25.803125 202.671507)scale(0.1 -0.1)">
       <use xlink:href="#DejaVuSans-50"/>
       <use x="63.623047" xlink:href="#DejaVuSans-46"/>
       <use x="95.410156" xlink:href="#DejaVuSans-53"/>
      </g>
     </g>
    </g>
    <g id="ytick_5">
     <g id="line2d_12">
      <g>
       <use style="stroke:#000000;stroke-width:0.8;" x="48.70625" xlink:href="#m289f290b84" y="164.046875"/>
      </g>
     </g>
     <g id="text_13">
      <!-- 3.0 -->
      <g transform="translate(25.803125 167.846094)scale(0.1 -0.1)">
       <use xlink:href="#DejaVuSans-51"/>
       <use x="63.623047" xlink:href="#DejaVuSans-46"/>
       <use x="95.410156" xlink:href="#DejaVuSans-48"/>
      </g>
     </g>
    </g>
    <g id="ytick_6">
     <g id="line2d_13">
      <g>
       <use style="stroke:#000000;stroke-width:0.8;" x="48.70625" xlink:href="#m289f290b84" y="129.221462"/>
      </g>
     </g>
     <g id="text_14">
      <!-- 3.5 -->
      <g transform="translate(25.803125 133.020681)scale(0.1 -0.1)">
       <use xlink:href="#DejaVuSans-51"/>
       <use x="63.623047" xlink:href="#DejaVuSans-46"/>
       <use x="95.410156" xlink:href="#DejaVuSans-53"/>
      </g>
     </g>
    </g>
    <g id="ytick_7">
     <g id="line2d_14">
      <g>
       <use style="stroke:#000000;stroke-width:0.8;" x="48.70625" xlink:href="#m289f290b84" y="94.396049"/>
      </g>
     </g>
     <g id="text_15">
      <!-- 4.0 -->
      <defs>
       <path d="M 37.796875 64.3125 
L 12.890625 25.390625 
L 37.796875 25.390625 
z
M 35.203125 72.90625 
L 47.609375 72.90625 
L 47.609375 25.390625 
L 58.015625 25.390625 
L 58.015625 17.1875 
L 47.609375 17.1875 
L 47.609375 0 
L 37.796875 0 
L 37.796875 17.1875 
L 4.890625 17.1875 
L 4.890625 26.703125 
z
" id="DejaVuSans-52"/>
      </defs>
      <g transform="translate(25.803125 98.195268)scale(0.1 -0.1)">
       <use xlink:href="#DejaVuSans-52"/>
       <use x="63.623047" xlink:href="#DejaVuSans-46"/>
       <use x="95.410156" xlink:href="#DejaVuSans-48"/>
      </g>
     </g>
    </g>
    <g id="ytick_8">
     <g id="line2d_15">
      <g>
       <use style="stroke:#000000;stroke-width:0.8;" x="48.70625" xlink:href="#m289f290b84" y="59.570636"/>
      </g>
     </g>
     <g id="text_16">
      <!-- 4.5 -->
      <g transform="translate(25.803125 63.369855)scale(0.1 -0.1)">
       <use xlink:href="#DejaVuSans-52"/>
       <use x="63.623047" xlink:href="#DejaVuSans-46"/>
       <use x="95.410156" xlink:href="#DejaVuSans-53"/>
      </g>
     </g>
    </g>
    <g id="ytick_9">
     <g id="line2d_16">
      <g>
       <use style="stroke:#000000;stroke-width:0.8;" x="48.70625" xlink:href="#m289f290b84" y="24.745223"/>
      </g>
     </g>
     <g id="text_17">
      <!-- 5.0 -->
      <g transform="translate(25.803125 28.544442)scale(0.1 -0.1)">
       <use xlink:href="#DejaVuSans-53"/>
       <use x="63.623047" xlink:href="#DejaVuSans-46"/>
       <use x="95.410156" xlink:href="#DejaVuSans-48"/>
      </g>
     </g>
    </g>
    <g id="text_18">
     <!-- avg_rating -->
     <defs>
      <path d="M 2.984375 54.6875 
L 12.5 54.6875 
L 29.59375 8.796875 
L 46.6875 54.6875 
L 56.203125 54.6875 
L 35.6875 0 
L 23.484375 0 
z
" id="DejaVuSans-118"/>
     </defs>
     <g transform="translate(19.445313 190.55625)rotate(-90)scale(0.1 -0.1)">
      <use xlink:href="#DejaVuSans-97"/>
      <use x="61.279297" xlink:href="#DejaVuSans-118"/>
      <use x="120.458984" xlink:href="#DejaVuSans-103"/>
      <use x="183.935547" xlink:href="#DejaVuSans-95"/>
      <use x="233.935547" xlink:href="#DejaVuSans-114"/>
      <use x="275.048828" xlink:href="#DejaVuSans-97"/>
      <use x="336.328125" xlink:href="#DejaVuSans-116"/>
      <use x="375.537109" xlink:href="#DejaVuSans-105"/>
      <use x="403.320312" xlink:href="#DejaVuSans-110"/>
      <use x="466.699219" xlink:href="#DejaVuSans-103"/>
     </g>
    </g>
   </g>
   <g id="line2d_17">
    <path clip-path="url(#pe8a887ced0)" d="M 48.70625 82.024823 
L 51.722106 81.839932 
L 54.737963 81.655042 
L 57.753819 81.470151 
L 60.769675 81.285261 
L 63.785532 81.10037 
L 66.801388 80.91548 
L 69.817245 80.730589 
L 72.833101 80.545699 
L 75.848957 80.360808 
L 78.864814 80.175918 
L 81.88067 79.991027 
L 84.896526 79.806137 
L 87.912383 79.621246 
L 90.928239 79.436356 
L 93.944096 79.251465 
L 96.959952 79.066575 
L 99.975808 78.881684 
L 102.991665 78.696794 
L 106.007521 78.511903 
L 109.023377 78.327012 
L 112.039234 78.142122 
L 115.05509 77.957231 
L 118.070946 77.772341 
L 121.086803 77.58745 
L 124.102659 77.40256 
L 127.118516 77.217669 
L 130.134372 77.032779 
L 133.150228 76.847888 
L 136.166085 76.662998 
L 139.181941 76.478107 
L 142.197797 76.293217 
L 145.213654 76.108326 
L 148.22951 75.923436 
L 151.245367 75.738545 
L 154.261223 75.553655 
L 157.277079 75.368764 
L 160.292936 75.183874 
L 163.308792 74.998983 
L 166.324648 74.814093 
L 169.340505 74.629202 
L 172.356361 74.444312 
L 175.372217 74.259421 
L 178.388074 74.074531 
L 181.40393 73.88964 
L 184.419787 73.70475 
L 187.435643 73.519859 
L 190.451499 73.334969 
L 193.467356 73.150078 
L 196.483212 72.965188 
L 199.499068 72.780297 
L 202.514925 72.595407 
L 205.530781 72.410516 
L 208.546637 72.225626 
L 211.562494 72.040735 
L 214.57835 71.855845 
L 217.594207 71.670954 
L 220.610063 71.486064 
L 223.625919 71.301173 
L 226.641776 71.116283 
L 229.657632 70.931392 
L 232.673488 70.746502 
L 235.689345 70.561611 
L 238.705201 70.376721 
L 241.721058 70.19183 
L 244.736914 70.00694 
L 247.75277 69.822049 
L 250.768627 69.637159 
L 253.784483 69.452268 
L 256.800339 69.267378 
L 259.816196 69.082487 
L 262.832052 68.897597 
L 265.847908 68.712706 
L 268.863765 68.527816 
L 271.879621 68.342925 
L 274.895478 68.158035 
L 277.911334 67.973144 
L 280.92719 67.788254 
L 283.943047 67.603363 
L 286.958903 67.418473 
L 289.974759 67.233582 
L 292.990616 67.048692 
L 296.006472 66.863801 
L 299.022329 66.678911 
L 302.038185 66.49402 
L 305.054041 66.30913 
L 308.069898 66.124239 
L 311.085754 65.939349 
L 314.10161 65.754458 
L 317.117467 65.569568 
L 320.133323 65.384677 
L 323.149179 65.199787 
L 326.165036 65.014896 
L 329.180892 64.830005 
L 332.196749 64.645115 
L 335.212605 64.460224 
L 338.228461 64.275334 
L 341.244318 64.090443 
L 344.260174 63.905553 
L 347.27603 63.720662 
" style="fill:none;stroke:#1f77b4;stroke-linecap:square;stroke-width:2.25;"/>
   </g>
   <g id="patch_3">
    <path d="M 48.70625 317.29375 
L 48.70625 10.8 
" style="fill:none;stroke:#000000;stroke-linecap:square;stroke-linejoin:miter;stroke-width:0.8;"/>
   </g>
   <g id="patch_4">
    <path d="M 48.70625 317.29375 
L 347.27603 317.29375 
" style="fill:none;stroke:#000000;stroke-linecap:square;stroke-linejoin:miter;stroke-width:0.8;"/>
   </g>
  </g>
 </g>
 <defs>
  <clipPath id="pe8a887ced0">
   <rect height="306.49375" width="298.56978" x="48.70625" y="10.8"/>
  </clipPath>
 </defs>
</svg>
